<svg width="1920" height="450" viewBox="0 0 1920 450" fill="none" xmlns="http://www.w3.org/2000/svg">
<rect width="1920" height="450" fill="#CCCCCC"/>
<path d="M629.4 281V175.1H652.8V281H629.4ZM609 195.05V175.1H651.3V195.05H609ZM679.039 281L712.339 234.65L721.039 234.05C719.739 236.35 718.289 238.4 716.689 240.2C715.189 241.9 713.239 243.25 710.839 244.25C708.539 245.15 705.439 245.6 701.539 245.6C695.139 245.6 689.239 244.1 683.839 241.1C678.539 238 674.289 233.85 671.089 228.65C667.989 223.35 666.439 217.35 666.439 210.65C666.439 203.65 668.189 197.35 671.689 191.75C675.189 186.15 679.889 181.7 685.789 178.4C691.689 175.1 698.339 173.45 705.739 173.45C713.139 173.45 719.789 175.1 725.689 178.4C731.589 181.6 736.239 186 739.639 191.6C743.139 197.1 744.889 203.35 744.889 210.35C744.889 219.35 741.789 228.4 735.589 237.5L705.739 281H679.039ZM705.739 228.05C708.839 228.05 711.639 227.3 714.139 225.8C716.639 224.3 718.589 222.3 719.989 219.8C721.389 217.2 722.089 214.3 722.089 211.1C722.089 207.8 721.389 204.85 719.989 202.25C718.589 199.65 716.639 197.65 714.139 196.25C711.639 194.75 708.839 194 705.739 194C702.539 194 699.689 194.75 697.189 196.25C694.789 197.65 692.839 199.65 691.339 202.25C689.939 204.85 689.239 207.8 689.239 211.1C689.239 214.3 689.939 217.2 691.339 219.8C692.839 222.3 694.839 224.3 697.339 225.8C699.839 227.3 702.639 228.05 705.739 228.05ZM751.69 267.8L792.34 225.8C794.84 223.3 796.84 221 798.34 218.9C799.84 216.8 800.94 214.85 801.64 213.05C802.34 211.15 802.69 209.25 802.69 207.35C802.69 203.25 801.34 200.05 798.64 197.75C796.04 195.35 792.59 194.15 788.29 194.15C784.09 194.15 780.29 195.3 776.89 197.6C773.59 199.8 770.39 203.45 767.29 208.55L751.54 194.9C755.74 187.8 761.09 182.45 767.59 178.85C774.09 175.25 781.54 173.45 789.94 173.45C797.24 173.45 803.54 174.8 808.84 177.5C814.24 180.2 818.39 184.05 821.29 189.05C824.29 194.05 825.79 199.9 825.79 206.6C825.79 210.8 825.24 214.7 824.14 218.3C823.04 221.8 821.24 225.3 818.74 228.8C816.34 232.2 813.09 235.95 808.99 240.05L780.79 268.1L751.69 267.8ZM751.69 281V267.8L771.64 260.9H827.89V281H751.69ZM882.858 282.65C874.358 282.65 866.658 280.35 859.758 275.75C852.858 271.15 847.408 264.75 843.408 256.55C839.508 248.25 837.558 238.7 837.558 227.9C837.558 217 839.508 207.5 843.408 199.4C847.308 191.2 852.658 184.85 859.458 180.35C866.258 175.75 873.958 173.45 882.558 173.45C891.258 173.45 899.008 175.75 905.808 180.35C912.608 184.85 917.958 191.2 921.858 199.4C925.858 207.6 927.858 217.15 927.858 228.05C927.858 238.95 925.858 248.5 921.858 256.7C917.958 264.9 912.608 271.3 905.808 275.9C899.108 280.4 891.458 282.65 882.858 282.65ZM882.708 261.8C887.108 261.8 890.908 260.55 894.108 258.05C897.308 255.45 899.758 251.65 901.458 246.65C903.258 241.55 904.158 235.35 904.158 228.05C904.158 220.65 903.258 214.45 901.458 209.45C899.758 204.45 897.308 200.7 894.108 198.2C890.908 195.6 887.058 194.3 882.558 194.3C878.258 194.3 874.458 195.55 871.158 198.05C867.958 200.55 865.508 204.3 863.808 209.3C862.108 214.3 861.258 220.5 861.258 227.9C861.258 235.3 862.108 241.5 863.808 246.5C865.508 251.5 867.958 255.3 871.158 257.9C874.458 260.5 878.308 261.8 882.708 261.8ZM1010.06 281L980.51 233.75H977.66L936.86 175.1H964.91L994.01 219.5H996.86L1037.66 281H1010.06ZM934.91 281L974.06 224.3L992.21 234.5L961.76 281H934.91ZM997.76 231.05L979.61 220.85L1009.01 175.1H1035.86L997.76 231.05ZM1043.04 244.25L1077.84 175.1H1103.49L1067.94 244.25H1043.04ZM1043.04 257.45V244.25L1050.84 237.5H1127.94V257.45H1043.04ZM1092.99 281V215.45H1116.09V281H1092.99ZM1167.78 282.65C1160.48 282.65 1153.63 281.4 1147.23 278.9C1140.93 276.3 1135.68 272.6 1131.48 267.8L1146.78 252.65C1148.68 255.45 1151.43 257.75 1155.03 259.55C1158.73 261.25 1162.73 262.1 1167.03 262.1C1170.83 262.1 1174.13 261.45 1176.93 260.15C1179.73 258.75 1181.93 256.8 1183.53 254.3C1185.13 251.7 1185.93 248.7 1185.93 245.3C1185.93 241.8 1185.13 238.8 1183.53 236.3C1181.93 233.8 1179.68 231.9 1176.78 230.6C1173.98 229.2 1170.78 228.5 1167.18 228.5C1163.58 228.5 1160.28 229 1157.28 230C1154.28 230.9 1151.53 232.3 1149.03 234.2L1150.98 219.2C1153.28 217.4 1155.48 215.95 1157.58 214.85C1159.68 213.65 1161.98 212.75 1164.48 212.15C1166.98 211.55 1169.93 211.25 1173.33 211.25C1181.13 211.25 1187.68 212.85 1192.98 216.05C1198.38 219.25 1202.43 223.5 1205.13 228.8C1207.93 234.1 1209.33 239.95 1209.33 246.35C1209.33 253.35 1207.58 259.6 1204.08 265.1C1200.68 270.6 1195.88 274.9 1189.68 278C1183.48 281.1 1176.18 282.65 1167.78 282.65ZM1149.03 234.2L1138.83 224.75L1143.93 175.1H1165.23L1159.68 224.3L1149.03 234.2ZM1147.08 195.05L1143.93 175.1H1203.48V195.05H1147.08ZM1263.72 282.65C1255.22 282.65 1247.52 280.35 1240.62 275.75C1233.72 271.15 1228.27 264.75 1224.27 256.55C1220.37 248.25 1218.42 238.7 1218.42 227.9C1218.42 217 1220.37 207.5 1224.27 199.4C1228.17 191.2 1233.52 184.85 1240.32 180.35C1247.12 175.75 1254.82 173.45 1263.42 173.45C1272.12 173.45 1279.87 175.75 1286.67 180.35C1293.47 184.85 1298.82 191.2 1302.72 199.4C1306.72 207.6 1308.72 217.15 1308.72 228.05C1308.72 238.95 1306.72 248.5 1302.72 256.7C1298.82 264.9 1293.47 271.3 1286.67 275.9C1279.97 280.4 1272.32 282.65 1263.72 282.65ZM1263.57 261.8C1267.97 261.8 1271.77 260.55 1274.97 258.05C1278.17 255.45 1280.62 251.65 1282.32 246.65C1284.12 241.55 1285.02 235.35 1285.02 228.05C1285.02 220.65 1284.12 214.45 1282.32 209.45C1280.62 204.45 1278.17 200.7 1274.97 198.2C1271.77 195.6 1267.92 194.3 1263.42 194.3C1259.12 194.3 1255.32 195.55 1252.02 198.05C1248.82 200.55 1246.37 204.3 1244.67 209.3C1242.97 214.3 1242.12 220.5 1242.12 227.9C1242.12 235.3 1242.97 241.5 1244.67 246.5C1246.37 251.5 1248.82 255.3 1252.02 257.9C1255.32 260.5 1259.17 261.8 1263.57 261.8Z" fill="#8B8B8B"/>
</svg>
