<svg width="465" height="400" viewBox="0 0 465 400" fill="none" xmlns="http://www.w3.org/2000/svg">
<path fill-rule="evenodd" clip-rule="evenodd" d="M465 0H225H0L0 118.5V400H465V0Z" fill="#CCCCCC"/>
<path d="M57.68 210.4L76.24 173.52H89.92L70.96 210.4H57.68ZM57.68 217.44V210.4L61.84 206.8H102.96V217.44H57.68ZM84.32 230V195.04H96.64V230H84.32ZM127.71 230.88C123.763 230.88 120.19 230 116.99 228.24C113.843 226.48 111.337 224.133 109.47 221.2C107.657 218.213 106.75 214.88 106.75 211.2C106.75 206.4 108.43 201.547 111.79 196.64L127.71 173.52H141.87L124.19 198.16L119.47 198.56C120.217 197.28 120.99 196.187 121.79 195.28C122.643 194.32 123.71 193.6 124.99 193.12C126.27 192.587 127.897 192.32 129.87 192.32C133.39 192.32 136.537 193.147 139.31 194.8C142.137 196.4 144.403 198.613 146.11 201.44C147.817 204.213 148.67 207.413 148.67 211.04C148.67 214.72 147.737 218.08 145.87 221.12C144.003 224.107 141.497 226.48 138.35 228.24C135.203 230 131.657 230.88 127.71 230.88ZM127.71 219.92C129.363 219.92 130.857 219.52 132.19 218.72C133.523 217.92 134.563 216.827 135.31 215.44C136.057 214.053 136.43 212.507 136.43 210.8C136.43 209.04 136.057 207.493 135.31 206.16C134.563 204.773 133.523 203.707 132.19 202.96C130.857 202.16 129.363 201.76 127.71 201.76C126.003 201.76 124.483 202.16 123.15 202.96C121.87 203.707 120.857 204.773 120.11 206.16C119.363 207.493 118.99 209.04 118.99 210.8C118.99 212.507 119.363 214.053 120.11 215.44C120.857 216.827 121.87 217.92 123.15 218.72C124.483 219.52 126.003 219.92 127.71 219.92ZM170.929 230.88C167.036 230.88 163.383 230.213 159.969 228.88C156.609 227.493 153.809 225.52 151.569 222.96L159.729 214.88C160.743 216.373 162.209 217.6 164.129 218.56C166.103 219.467 168.236 219.92 170.529 219.92C172.556 219.92 174.316 219.573 175.809 218.88C177.303 218.133 178.476 217.093 179.329 215.76C180.183 214.373 180.609 212.773 180.609 210.96C180.609 209.093 180.183 207.493 179.329 206.16C178.476 204.827 177.276 203.813 175.729 203.12C174.236 202.373 172.529 202 170.609 202C168.689 202 166.929 202.267 165.329 202.8C163.729 203.28 162.263 204.027 160.929 205.04L161.969 197.04C163.196 196.08 164.369 195.307 165.489 194.72C166.609 194.08 167.836 193.6 169.169 193.28C170.503 192.96 172.076 192.8 173.889 192.8C178.049 192.8 181.543 193.653 184.369 195.36C187.249 197.067 189.409 199.333 190.849 202.16C192.343 204.987 193.089 208.107 193.089 211.52C193.089 215.253 192.156 218.587 190.289 221.52C188.476 224.453 185.916 226.747 182.609 228.4C179.303 230.053 175.409 230.88 170.929 230.88ZM160.929 205.04L155.489 200L158.209 173.52H169.569L166.609 199.76L160.929 205.04ZM159.889 184.16L158.209 173.52H189.969V184.16H159.889ZM236.655 230L220.895 204.8H219.375L197.615 173.52H212.575L228.095 197.2H229.615L251.375 230H236.655ZM196.575 230L217.455 199.76L227.135 205.2L210.895 230H196.575ZM230.095 203.36L220.415 197.92L236.095 173.52H250.415L230.095 203.36ZM254.243 210.4L272.803 173.52H286.483L267.523 210.4H254.243ZM254.243 217.44V210.4L258.403 206.8H299.523V217.44H254.243ZM280.883 230V195.04H293.203V230H280.883ZM328.033 230.88C323.499 230.88 319.393 229.653 315.713 227.2C312.033 224.747 309.126 221.333 306.993 216.96C304.913 212.533 303.873 207.44 303.873 201.68C303.873 195.867 304.913 190.8 306.993 186.48C309.073 182.107 311.926 178.72 315.553 176.32C319.179 173.867 323.286 172.64 327.873 172.64C332.513 172.64 336.646 173.867 340.273 176.32C343.899 178.72 346.753 182.107 348.833 186.48C350.966 190.853 352.033 195.947 352.033 201.76C352.033 207.573 350.966 212.667 348.833 217.04C346.753 221.413 343.899 224.827 340.273 227.28C336.699 229.68 332.619 230.88 328.033 230.88ZM327.953 219.76C330.299 219.76 332.326 219.093 334.033 217.76C335.739 216.373 337.046 214.347 337.953 211.68C338.913 208.96 339.393 205.653 339.393 201.76C339.393 197.813 338.913 194.507 337.953 191.84C337.046 189.173 335.739 187.173 334.033 185.84C332.326 184.453 330.273 183.76 327.873 183.76C325.579 183.76 323.553 184.427 321.793 185.76C320.086 187.093 318.779 189.093 317.873 191.76C316.966 194.427 316.513 197.733 316.513 201.68C316.513 205.627 316.966 208.933 317.873 211.6C318.779 214.267 320.086 216.293 321.793 217.68C323.553 219.067 325.606 219.76 327.953 219.76ZM381.314 230.88C376.78 230.88 372.674 229.653 368.994 227.2C365.314 224.747 362.407 221.333 360.274 216.96C358.194 212.533 357.154 207.44 357.154 201.68C357.154 195.867 358.194 190.8 360.274 186.48C362.354 182.107 365.207 178.72 368.834 176.32C372.46 173.867 376.567 172.64 381.154 172.64C385.794 172.64 389.927 173.867 393.554 176.32C397.18 178.72 400.034 182.107 402.114 186.48C404.247 190.853 405.314 195.947 405.314 201.76C405.314 207.573 404.247 212.667 402.114 217.04C400.034 221.413 397.18 224.827 393.554 227.28C389.98 229.68 385.9 230.88 381.314 230.88ZM381.234 219.76C383.58 219.76 385.607 219.093 387.314 217.76C389.02 216.373 390.327 214.347 391.234 211.68C392.194 208.96 392.674 205.653 392.674 201.76C392.674 197.813 392.194 194.507 391.234 191.84C390.327 189.173 389.02 187.173 387.314 185.84C385.607 184.453 383.554 183.76 381.154 183.76C378.86 183.76 376.834 184.427 375.074 185.76C373.367 187.093 372.06 189.093 371.154 191.76C370.247 194.427 369.794 197.733 369.794 201.68C369.794 205.627 370.247 208.933 371.154 211.6C372.06 214.267 373.367 216.293 375.074 217.68C376.834 219.067 378.887 219.76 381.234 219.76Z" fill="#8B8B8B"/>
</svg>
