<svg width="516" height="400" viewBox="0 0 516 400" fill="none" xmlns="http://www.w3.org/2000/svg">
<rect width="516" height="400" rx="16" fill="#CCCCCC"/>
<path d="M147.24 222.66C144.32 222.66 141.58 222.16 139.02 221.16C136.5 220.12 134.4 218.64 132.72 216.72L138.84 210.66C139.6 211.78 140.7 212.7 142.14 213.42C143.62 214.1 145.22 214.44 146.94 214.44C148.46 214.44 149.78 214.18 150.9 213.66C152.02 213.1 152.9 212.32 153.54 211.32C154.18 210.28 154.5 209.08 154.5 207.72C154.5 206.32 154.18 205.12 153.54 204.12C152.9 203.12 152 202.36 150.84 201.84C149.72 201.28 148.44 201 147 201C145.56 201 144.24 201.2 143.04 201.6C141.84 201.96 140.74 202.52 139.74 203.28L140.52 197.28C141.44 196.56 142.32 195.98 143.16 195.54C144 195.06 144.92 194.7 145.92 194.46C146.92 194.22 148.1 194.1 149.46 194.1C152.58 194.1 155.2 194.74 157.32 196.02C159.48 197.3 161.1 199 162.18 201.12C163.3 203.24 163.86 205.58 163.86 208.14C163.86 210.94 163.16 213.44 161.76 215.64C160.4 217.84 158.48 219.56 156 220.8C153.52 222.04 150.6 222.66 147.24 222.66ZM139.74 203.28L135.66 199.5L137.7 179.64H146.22L144 199.32L139.74 203.28ZM138.96 187.62L137.7 179.64H161.52V187.62H138.96ZM174.934 222V179.64H184.294V222H174.934ZM166.774 187.62V179.64H183.694V187.62H166.774ZM205.47 222.66C202.51 222.66 199.83 222 197.43 220.68C195.07 219.36 193.19 217.6 191.79 215.4C190.43 213.16 189.75 210.66 189.75 207.9C189.75 204.3 191.01 200.66 193.53 196.98L205.47 179.64H216.09L202.83 198.12L199.29 198.42C199.85 197.46 200.43 196.64 201.03 195.96C201.67 195.24 202.47 194.7 203.43 194.34C204.39 193.94 205.61 193.74 207.09 193.74C209.73 193.74 212.09 194.36 214.17 195.6C216.29 196.8 217.99 198.46 219.27 200.58C220.55 202.66 221.19 205.06 221.19 207.78C221.19 210.54 220.49 213.06 219.09 215.34C217.69 217.58 215.81 219.36 213.45 220.68C211.09 222 208.43 222.66 205.47 222.66ZM205.47 214.44C206.71 214.44 207.83 214.14 208.83 213.54C209.83 212.94 210.61 212.12 211.17 211.08C211.73 210.04 212.01 208.88 212.01 207.6C212.01 206.28 211.73 205.12 211.17 204.12C210.61 203.08 209.83 202.28 208.83 201.72C207.83 201.12 206.71 200.82 205.47 200.82C204.19 200.82 203.05 201.12 202.05 201.72C201.09 202.28 200.33 203.08 199.77 204.12C199.21 205.12 198.93 206.28 198.93 207.6C198.93 208.88 199.21 210.04 199.77 211.08C200.33 212.12 201.09 212.94 202.05 213.54C203.05 214.14 204.19 214.44 205.47 214.44ZM253.605 222L241.785 203.1H240.645L224.325 179.64H235.545L247.185 197.4H248.325L264.645 222H253.605ZM223.545 222L239.205 199.32L246.465 203.4L234.285 222H223.545ZM248.685 202.02L241.425 197.94L253.185 179.64H263.925L248.685 202.02ZM266.795 207.3L280.715 179.64H290.975L276.755 207.3H266.795ZM266.795 212.58V207.3L269.915 204.6H300.755V212.58H266.795ZM286.775 222V195.78H296.015V222H286.775ZM322.138 222.66C318.738 222.66 315.658 221.74 312.898 219.9C310.138 218.06 307.958 215.5 306.358 212.22C304.798 208.9 304.018 205.08 304.018 200.76C304.018 196.4 304.798 192.6 306.358 189.36C307.918 186.08 310.058 183.54 312.778 181.74C315.498 179.9 318.578 178.98 322.018 178.98C325.498 178.98 328.598 179.9 331.318 181.74C334.038 183.54 336.178 186.08 337.738 189.36C339.338 192.64 340.138 196.46 340.138 200.82C340.138 205.18 339.338 209 337.738 212.28C336.178 215.56 334.038 218.12 331.318 219.96C328.638 221.76 325.578 222.66 322.138 222.66ZM322.078 214.32C323.838 214.32 325.358 213.82 326.638 212.82C327.918 211.78 328.898 210.26 329.578 208.26C330.298 206.22 330.658 203.74 330.658 200.82C330.658 197.86 330.298 195.38 329.578 193.38C328.898 191.38 327.918 189.88 326.638 188.88C325.358 187.84 323.818 187.32 322.018 187.32C320.298 187.32 318.778 187.82 317.458 188.82C316.178 189.82 315.198 191.32 314.518 193.32C313.838 195.32 313.498 197.8 313.498 200.76C313.498 203.72 313.838 206.2 314.518 208.2C315.198 210.2 316.178 211.72 317.458 212.76C318.778 213.8 320.318 214.32 322.078 214.32ZM362.099 222.66C358.699 222.66 355.619 221.74 352.859 219.9C350.099 218.06 347.919 215.5 346.319 212.22C344.759 208.9 343.979 205.08 343.979 200.76C343.979 196.4 344.759 192.6 346.319 189.36C347.879 186.08 350.019 183.54 352.739 181.74C355.459 179.9 358.539 178.98 361.979 178.98C365.459 178.98 368.559 179.9 371.279 181.74C373.999 183.54 376.139 186.08 377.699 189.36C379.299 192.64 380.099 196.46 380.099 200.82C380.099 205.18 379.299 209 377.699 212.28C376.139 215.56 373.999 218.12 371.279 219.96C368.599 221.76 365.539 222.66 362.099 222.66ZM362.039 214.32C363.799 214.32 365.319 213.82 366.599 212.82C367.879 211.78 368.859 210.26 369.539 208.26C370.259 206.22 370.619 203.74 370.619 200.82C370.619 197.86 370.259 195.38 369.539 193.38C368.859 191.38 367.879 189.88 366.599 188.88C365.319 187.84 363.779 187.32 361.979 187.32C360.259 187.32 358.739 187.82 357.419 188.82C356.139 189.82 355.159 191.32 354.479 193.32C353.799 195.32 353.459 197.8 353.459 200.76C353.459 203.72 353.799 206.2 354.479 208.2C355.159 210.2 356.139 211.72 357.419 212.76C358.739 213.8 360.279 214.32 362.039 214.32Z" fill="#8B8B8B"/>
</svg>
