<svg width="100" height="100" viewBox="0 0 100 100" fill="none" xmlns="http://www.w3.org/2000/svg">
<circle cx="50" cy="50" r="50" fill="#CCCCCC"/>
<path d="M11.12 58V43.88H14.24V58H11.12ZM8.4 46.54V43.88H14.04V46.54H8.4ZM22.2386 58.22C21.1053 58.22 20.0786 57.9133 19.1586 57.3C18.2386 56.6867 17.5119 55.8333 16.9786 54.74C16.4586 53.6333 16.1986 52.36 16.1986 50.92C16.1986 49.4667 16.4586 48.2 16.9786 47.12C17.4986 46.0267 18.2119 45.18 19.1186 44.58C20.0253 43.9667 21.0519 43.66 22.1986 43.66C23.3586 43.66 24.3919 43.9667 25.2986 44.58C26.2053 45.18 26.9186 46.0267 27.4386 47.12C27.9719 48.2133 28.2386 49.4867 28.2386 50.94C28.2386 52.3933 27.9719 53.6667 27.4386 54.76C26.9186 55.8533 26.2053 56.7067 25.2986 57.32C24.4053 57.92 23.3853 58.22 22.2386 58.22ZM22.2186 55.44C22.8053 55.44 23.3119 55.2733 23.7386 54.94C24.1653 54.5933 24.4919 54.0867 24.7186 53.42C24.9586 52.74 25.0786 51.9133 25.0786 50.94C25.0786 49.9533 24.9586 49.1267 24.7186 48.46C24.4919 47.7933 24.1653 47.2933 23.7386 46.96C23.3119 46.6133 22.7986 46.44 22.1986 46.44C21.6253 46.44 21.1186 46.6067 20.6786 46.94C20.2519 47.2733 19.9253 47.7733 19.6986 48.44C19.4719 49.1067 19.3586 49.9333 19.3586 50.92C19.3586 51.9067 19.4719 52.7333 19.6986 53.4C19.9253 54.0667 20.2519 54.5733 20.6786 54.92C21.1186 55.2667 21.6319 55.44 22.2186 55.44ZM35.5589 58.22C34.4256 58.22 33.3989 57.9133 32.4789 57.3C31.5589 56.6867 30.8322 55.8333 30.2989 54.74C29.7789 53.6333 29.5189 52.36 29.5189 50.92C29.5189 49.4667 29.7789 48.2 30.2989 47.12C30.8189 46.0267 31.5322 45.18 32.4389 44.58C33.3456 43.9667 34.3722 43.66 35.5189 43.66C36.6789 43.66 37.7122 43.9667 38.6189 44.58C39.5256 45.18 40.2389 46.0267 40.7589 47.12C41.2922 48.2133 41.5589 49.4867 41.5589 50.94C41.5589 52.3933 41.2922 53.6667 40.7589 54.76C40.2389 55.8533 39.5256 56.7067 38.6189 57.32C37.7256 57.92 36.7056 58.22 35.5589 58.22ZM35.5389 55.44C36.1256 55.44 36.6322 55.2733 37.0589 54.94C37.4856 54.5933 37.8122 54.0867 38.0389 53.42C38.2789 52.74 38.3989 51.9133 38.3989 50.94C38.3989 49.9533 38.2789 49.1267 38.0389 48.46C37.8122 47.7933 37.4856 47.2933 37.0589 46.96C36.6322 46.6133 36.1189 46.44 35.5189 46.44C34.9456 46.44 34.4389 46.6067 33.9989 46.94C33.5722 47.2733 33.2456 47.7733 33.0189 48.44C32.7922 49.1067 32.6789 49.9333 32.6789 50.92C32.6789 51.9067 32.7922 52.7333 33.0189 53.4C33.2456 54.0667 33.5722 54.5733 33.9989 54.92C34.4389 55.2667 34.9522 55.44 35.5389 55.44ZM52.5192 58L48.5792 51.7H48.1992L42.7592 43.88H46.4992L50.3792 49.8H50.7592L56.1992 58H52.5192ZM42.4992 58L47.7192 50.44L50.1392 51.8L46.0792 58H42.4992ZM50.8792 51.34L48.4592 49.98L52.3792 43.88H55.9592L50.8792 51.34ZM59.6161 58V43.88H62.7361V58H59.6161ZM56.8961 46.54V43.88H62.5361V46.54H56.8961ZM70.7347 58.22C69.6014 58.22 68.5747 57.9133 67.6547 57.3C66.7347 56.6867 66.008 55.8333 65.4747 54.74C64.9547 53.6333 64.6947 52.36 64.6947 50.92C64.6947 49.4667 64.9547 48.2 65.4747 47.12C65.9947 46.0267 66.708 45.18 67.6147 44.58C68.5214 43.9667 69.548 43.66 70.6947 43.66C71.8547 43.66 72.888 43.9667 73.7947 44.58C74.7014 45.18 75.4147 46.0267 75.9347 47.12C76.468 48.2133 76.7347 49.4867 76.7347 50.94C76.7347 52.3933 76.468 53.6667 75.9347 54.76C75.4147 55.8533 74.7014 56.7067 73.7947 57.32C72.9014 57.92 71.8814 58.22 70.7347 58.22ZM70.7147 55.44C71.3014 55.44 71.808 55.2733 72.2347 54.94C72.6614 54.5933 72.988 54.0867 73.2147 53.42C73.4547 52.74 73.5747 51.9133 73.5747 50.94C73.5747 49.9533 73.4547 49.1267 73.2147 48.46C72.988 47.7933 72.6614 47.2933 72.2347 46.96C71.808 46.6133 71.2947 46.44 70.6947 46.44C70.1214 46.44 69.6147 46.6067 69.1747 46.94C68.748 47.2733 68.4214 47.7733 68.1947 48.44C67.968 49.1067 67.8547 49.9333 67.8547 50.92C67.8547 51.9067 67.968 52.7333 68.1947 53.4C68.4214 54.0667 68.748 54.5733 69.1747 54.92C69.6147 55.2667 70.128 55.44 70.7147 55.44ZM84.055 58.22C82.9217 58.22 81.895 57.9133 80.975 57.3C80.055 56.6867 79.3283 55.8333 78.795 54.74C78.275 53.6333 78.015 52.36 78.015 50.92C78.015 49.4667 78.275 48.2 78.795 47.12C79.315 46.0267 80.0283 45.18 80.935 44.58C81.8417 43.9667 82.8683 43.66 84.015 43.66C85.175 43.66 86.2083 43.9667 87.115 44.58C88.0217 45.18 88.735 46.0267 89.255 47.12C89.7883 48.2133 90.055 49.4867 90.055 50.94C90.055 52.3933 89.7883 53.6667 89.255 54.76C88.735 55.8533 88.0217 56.7067 87.115 57.32C86.2217 57.92 85.2017 58.22 84.055 58.22ZM84.035 55.44C84.6217 55.44 85.1283 55.2733 85.555 54.94C85.9817 54.5933 86.3083 54.0867 86.535 53.42C86.775 52.74 86.895 51.9133 86.895 50.94C86.895 49.9533 86.775 49.1267 86.535 48.46C86.3083 47.7933 85.9817 47.2933 85.555 46.96C85.1283 46.6133 84.615 46.44 84.015 46.44C83.4417 46.44 82.935 46.6067 82.495 46.94C82.0683 47.2733 81.7417 47.7733 81.515 48.44C81.2883 49.1067 81.175 49.9333 81.175 50.92C81.175 51.9067 81.2883 52.7333 81.515 53.4C81.7417 54.0667 82.0683 54.5733 82.495 54.92C82.935 55.2667 83.4483 55.44 84.035 55.44Z" fill="#8B8B8B"/>
</svg>
