<svg width="452" height="418" viewBox="0 0 452 418" fill="none" xmlns="http://www.w3.org/2000/svg">
<rect width="452" height="418" rx="12" fill="#CCCCCC"/>
<path d="M99.26 216.3L113.18 188.64H123.44L109.22 216.3H99.26ZM99.26 221.58V216.3L102.38 213.6H133.22V221.58H99.26ZM119.24 231V204.78H128.48V231H119.24ZM149.158 231.66C146.238 231.66 143.498 231.16 140.938 230.16C138.418 229.12 136.318 227.64 134.638 225.72L140.758 219.66C141.518 220.78 142.618 221.7 144.058 222.42C145.538 223.1 147.138 223.44 148.858 223.44C150.378 223.44 151.698 223.18 152.818 222.66C153.938 222.1 154.818 221.32 155.458 220.32C156.098 219.28 156.418 218.08 156.418 216.72C156.418 215.32 156.098 214.12 155.458 213.12C154.818 212.12 153.918 211.36 152.758 210.84C151.638 210.28 150.358 210 148.918 210C147.478 210 146.158 210.2 144.958 210.6C143.758 210.96 142.658 211.52 141.658 212.28L142.438 206.28C143.358 205.56 144.238 204.98 145.078 204.54C145.918 204.06 146.838 203.7 147.838 203.46C148.838 203.22 150.018 203.1 151.378 203.1C154.498 203.1 157.118 203.74 159.238 205.02C161.398 206.3 163.018 208 164.098 210.12C165.218 212.24 165.778 214.58 165.778 217.14C165.778 219.94 165.078 222.44 163.678 224.64C162.318 226.84 160.398 228.56 157.918 229.8C155.438 231.04 152.518 231.66 149.158 231.66ZM141.658 212.28L137.578 208.5L139.618 188.64H148.138L145.918 208.32L141.658 212.28ZM140.878 196.62L139.618 188.64H163.438V196.62H140.878ZM168.932 225.72L185.192 208.92C186.192 207.92 186.992 207 187.592 206.16C188.192 205.32 188.632 204.54 188.912 203.82C189.192 203.06 189.332 202.3 189.332 201.54C189.332 199.9 188.792 198.62 187.712 197.7C186.672 196.74 185.292 196.26 183.572 196.26C181.892 196.26 180.372 196.72 179.012 197.64C177.692 198.52 176.412 199.98 175.172 202.02L168.872 196.56C170.552 193.72 172.692 191.58 175.292 190.14C177.892 188.7 180.872 187.98 184.232 187.98C187.152 187.98 189.672 188.52 191.792 189.6C193.952 190.68 195.612 192.22 196.772 194.22C197.972 196.22 198.572 198.56 198.572 201.24C198.572 202.92 198.352 204.48 197.912 205.92C197.472 207.32 196.752 208.72 195.752 210.12C194.792 211.48 193.492 212.98 191.852 214.62L180.572 225.84L168.932 225.72ZM168.932 231V225.72L176.912 222.96H199.412V231H168.932ZM232.319 231L220.499 212.1H219.359L203.039 188.64H214.259L225.899 206.4H227.039L243.359 231H232.319ZM202.259 231L217.919 208.32L225.179 212.4L212.999 231H202.259ZM227.399 211.02L220.139 206.94L231.899 188.64H242.639L227.399 211.02ZM245.51 216.3L259.43 188.64H269.69L255.47 216.3H245.51ZM245.51 221.58V216.3L248.63 213.6H279.47V221.58H245.51ZM265.49 231V204.78H274.73V231H265.49ZM288.239 231V188.64H297.599V231H288.239ZM280.079 196.62V188.64H296.999V196.62H280.079ZM318.415 231.66C315.375 231.66 312.715 231.12 310.435 230.04C308.195 228.96 306.435 227.48 305.155 225.6C303.915 223.72 303.295 221.58 303.295 219.18C303.295 217.18 303.675 215.38 304.435 213.78C305.235 212.18 306.335 210.84 307.735 209.76C309.175 208.68 310.835 207.94 312.715 207.54L312.535 209.46C310.935 209.1 309.575 208.44 308.455 207.48C307.335 206.48 306.475 205.28 305.875 203.88C305.275 202.48 304.975 201.02 304.975 199.5C304.975 197.26 305.535 195.28 306.655 193.56C307.815 191.8 309.415 190.42 311.455 189.42C313.495 188.42 315.815 187.92 318.415 187.92C321.055 187.92 323.375 188.42 325.375 189.42C327.415 190.42 328.995 191.8 330.115 193.56C331.275 195.28 331.855 197.26 331.855 199.5C331.855 201.02 331.555 202.48 330.955 203.88C330.395 205.28 329.555 206.48 328.435 207.48C327.315 208.44 325.955 209.1 324.355 209.46L324.115 207.54C326.035 207.94 327.695 208.68 329.095 209.76C330.535 210.84 331.635 212.18 332.395 213.78C333.155 215.38 333.535 217.18 333.535 219.18C333.535 221.58 332.915 223.72 331.675 225.6C330.435 227.48 328.675 228.96 326.395 230.04C324.155 231.12 321.495 231.66 318.415 231.66ZM318.415 223.62C319.615 223.62 320.675 223.38 321.595 222.9C322.515 222.38 323.235 221.68 323.755 220.8C324.315 219.92 324.595 218.94 324.595 217.86C324.595 216.74 324.315 215.76 323.755 214.92C323.235 214.04 322.515 213.36 321.595 212.88C320.675 212.36 319.615 212.1 318.415 212.1C317.215 212.1 316.155 212.36 315.235 212.88C314.315 213.36 313.595 214.04 313.075 214.92C312.555 215.76 312.295 216.74 312.295 217.86C312.295 218.94 312.555 219.92 313.075 220.8C313.595 221.68 314.315 222.38 315.235 222.9C316.155 223.38 317.215 223.62 318.415 223.62ZM318.415 205.26C319.815 205.26 320.955 204.82 321.835 203.94C322.755 203.02 323.215 201.88 323.215 200.52C323.215 199.12 322.755 197.98 321.835 197.1C320.955 196.18 319.815 195.72 318.415 195.72C317.055 195.72 315.915 196.16 314.995 197.04C314.075 197.92 313.615 199.06 313.615 200.46C313.615 201.82 314.075 202.96 314.995 203.88C315.915 204.8 317.055 205.26 318.415 205.26Z" fill="#8B8B8B"/>
</svg>
