<svg width="516" height="400" viewBox="0 0 516 400" fill="none" xmlns="http://www.w3.org/2000/svg">
<rect width="516" height="400" rx="16" fill="#CCCCCC"/>
<path d="M111.32 230.88C107.427 230.88 103.773 230.213 100.36 228.88C97 227.493 94.2 225.52 91.96 222.96L100.12 214.88C101.133 216.373 102.6 217.6 104.52 218.56C106.493 219.467 108.627 219.92 110.92 219.92C112.947 219.92 114.707 219.573 116.2 218.88C117.693 218.133 118.867 217.093 119.72 215.76C120.573 214.373 121 212.773 121 210.96C121 209.093 120.573 207.493 119.72 206.16C118.867 204.827 117.667 203.813 116.12 203.12C114.627 202.373 112.92 202 111 202C109.08 202 107.32 202.267 105.72 202.8C104.12 203.28 102.653 204.027 101.32 205.04L102.36 197.04C103.587 196.08 104.76 195.307 105.88 194.72C107 194.08 108.227 193.6 109.56 193.28C110.893 192.96 112.467 192.8 114.28 192.8C118.44 192.8 121.933 193.653 124.76 195.36C127.64 197.067 129.8 199.333 131.24 202.16C132.733 204.987 133.48 208.107 133.48 211.52C133.48 215.253 132.547 218.587 130.68 221.52C128.867 224.453 126.307 226.747 123 228.4C119.693 230.053 115.8 230.88 111.32 230.88ZM101.32 205.04L95.88 200L98.6 173.52H109.96L107 199.76L101.32 205.04ZM100.28 184.16L98.6 173.52H130.36V184.16H100.28ZM148.246 230V173.52H160.726V230H148.246ZM137.366 184.16V173.52H159.926V184.16H137.366ZM188.96 230.88C185.013 230.88 181.44 230 178.24 228.24C175.093 226.48 172.587 224.133 170.72 221.2C168.907 218.213 168 214.88 168 211.2C168 206.4 169.68 201.547 173.04 196.64L188.96 173.52H203.12L185.44 198.16L180.72 198.56C181.467 197.28 182.24 196.187 183.04 195.28C183.893 194.32 184.96 193.6 186.24 193.12C187.52 192.587 189.147 192.32 191.12 192.32C194.64 192.32 197.787 193.147 200.56 194.8C203.387 196.4 205.653 198.613 207.36 201.44C209.067 204.213 209.92 207.413 209.92 211.04C209.92 214.72 208.987 218.08 207.12 221.12C205.253 224.107 202.747 226.48 199.6 228.24C196.453 230 192.907 230.88 188.96 230.88ZM188.96 219.92C190.613 219.92 192.107 219.52 193.44 218.72C194.773 217.92 195.813 216.827 196.56 215.44C197.307 214.053 197.68 212.507 197.68 210.8C197.68 209.04 197.307 207.493 196.56 206.16C195.813 204.773 194.773 203.707 193.44 202.96C192.107 202.16 190.613 201.76 188.96 201.76C187.253 201.76 185.733 202.16 184.4 202.96C183.12 203.707 182.107 204.773 181.36 206.16C180.613 207.493 180.24 209.04 180.24 210.8C180.24 212.507 180.613 214.053 181.36 215.44C182.107 216.827 183.12 217.92 184.4 218.72C185.733 219.52 187.253 219.92 188.96 219.92ZM253.139 230L237.379 204.8H235.859L214.099 173.52H229.059L244.579 197.2H246.099L267.859 230H253.139ZM213.059 230L233.939 199.76L243.619 205.2L227.379 230H213.059ZM246.579 203.36L236.899 197.92L252.579 173.52H266.899L246.579 203.36ZM270.727 210.4L289.287 173.52H302.967L284.007 210.4H270.727ZM270.727 217.44V210.4L274.887 206.8H316.007V217.44H270.727ZM297.367 230V195.04H309.687V230H297.367ZM344.517 230.88C339.984 230.88 335.877 229.653 332.197 227.2C328.517 224.747 325.61 221.333 323.477 216.96C321.397 212.533 320.357 207.44 320.357 201.68C320.357 195.867 321.397 190.8 323.477 186.48C325.557 182.107 328.41 178.72 332.037 176.32C335.664 173.867 339.77 172.64 344.357 172.64C348.997 172.64 353.13 173.867 356.757 176.32C360.384 178.72 363.237 182.107 365.317 186.48C367.45 190.853 368.517 195.947 368.517 201.76C368.517 207.573 367.45 212.667 365.317 217.04C363.237 221.413 360.384 224.827 356.757 227.28C353.184 229.68 349.104 230.88 344.517 230.88ZM344.437 219.76C346.784 219.76 348.81 219.093 350.517 217.76C352.224 216.373 353.53 214.347 354.437 211.68C355.397 208.96 355.877 205.653 355.877 201.76C355.877 197.813 355.397 194.507 354.437 191.84C353.53 189.173 352.224 187.173 350.517 185.84C348.81 184.453 346.757 183.76 344.357 183.76C342.064 183.76 340.037 184.427 338.277 185.76C336.57 187.093 335.264 189.093 334.357 191.76C333.45 194.427 332.997 197.733 332.997 201.68C332.997 205.627 333.45 208.933 334.357 211.6C335.264 214.267 336.57 216.293 338.277 217.68C340.037 219.067 342.09 219.76 344.437 219.76ZM397.798 230.88C393.265 230.88 389.158 229.653 385.478 227.2C381.798 224.747 378.891 221.333 376.758 216.96C374.678 212.533 373.638 207.44 373.638 201.68C373.638 195.867 374.678 190.8 376.758 186.48C378.838 182.107 381.691 178.72 385.318 176.32C388.945 173.867 393.051 172.64 397.638 172.64C402.278 172.64 406.411 173.867 410.038 176.32C413.665 178.72 416.518 182.107 418.598 186.48C420.731 190.853 421.798 195.947 421.798 201.76C421.798 207.573 420.731 212.667 418.598 217.04C416.518 221.413 413.665 224.827 410.038 227.28C406.465 229.68 402.385 230.88 397.798 230.88ZM397.718 219.76C400.065 219.76 402.091 219.093 403.798 217.76C405.505 216.373 406.811 214.347 407.718 211.68C408.678 208.96 409.158 205.653 409.158 201.76C409.158 197.813 408.678 194.507 407.718 191.84C406.811 189.173 405.505 187.173 403.798 185.84C402.091 184.453 400.038 183.76 397.638 183.76C395.345 183.76 393.318 184.427 391.558 185.76C389.851 187.093 388.545 189.093 387.638 191.76C386.731 194.427 386.278 197.733 386.278 201.68C386.278 205.627 386.731 208.933 387.638 211.6C388.545 214.267 389.851 216.293 391.558 217.68C393.318 219.067 395.371 219.76 397.718 219.76Z" fill="#8B8B8B"/>
</svg>
