<svg width="465" height="400" viewBox="0 0 465 400" fill="none" xmlns="http://www.w3.org/2000/svg">
<path fill-rule="evenodd" clip-rule="evenodd" d="M465 0H225H0V118.5V400H465V0Z" fill="#CCCCCC"/>
<path d="M57.68 257.4L76.24 220.52H89.92L70.96 257.4H57.68ZM57.68 264.44V257.4L61.84 253.8H102.96V264.44H57.68ZM84.32 277V242.04H96.64V277H84.32ZM127.71 277.88C123.763 277.88 120.19 277 116.99 275.24C113.843 273.48 111.337 271.133 109.47 268.2C107.657 265.213 106.75 261.88 106.75 258.2C106.75 253.4 108.43 248.547 111.79 243.64L127.71 220.52H141.87L124.19 245.16L119.47 245.56C120.217 244.28 120.99 243.187 121.79 242.28C122.643 241.32 123.71 240.6 124.99 240.12C126.27 239.587 127.897 239.32 129.87 239.32C133.39 239.32 136.537 240.147 139.31 241.8C142.137 243.4 144.403 245.613 146.11 248.44C147.817 251.213 148.67 254.413 148.67 258.04C148.67 261.72 147.737 265.08 145.87 268.12C144.003 271.107 141.497 273.48 138.35 275.24C135.203 277 131.657 277.88 127.71 277.88ZM127.71 266.92C129.363 266.92 130.857 266.52 132.19 265.72C133.523 264.92 134.563 263.827 135.31 262.44C136.057 261.053 136.43 259.507 136.43 257.8C136.43 256.04 136.057 254.493 135.31 253.16C134.563 251.773 133.523 250.707 132.19 249.96C130.857 249.16 129.363 248.76 127.71 248.76C126.003 248.76 124.483 249.16 123.15 249.96C121.87 250.707 120.857 251.773 120.11 253.16C119.363 254.493 118.99 256.04 118.99 257.8C118.99 259.507 119.363 261.053 120.11 262.44C120.857 263.827 121.87 264.92 123.15 265.72C124.483 266.52 126.003 266.92 127.71 266.92ZM170.929 277.88C167.036 277.88 163.383 277.213 159.969 275.88C156.609 274.493 153.809 272.52 151.569 269.96L159.729 261.88C160.743 263.373 162.209 264.6 164.129 265.56C166.103 266.467 168.236 266.92 170.529 266.92C172.556 266.92 174.316 266.573 175.809 265.88C177.303 265.133 178.476 264.093 179.329 262.76C180.183 261.373 180.609 259.773 180.609 257.96C180.609 256.093 180.183 254.493 179.329 253.16C178.476 251.827 177.276 250.813 175.729 250.12C174.236 249.373 172.529 249 170.609 249C168.689 249 166.929 249.267 165.329 249.8C163.729 250.28 162.263 251.027 160.929 252.04L161.969 244.04C163.196 243.08 164.369 242.307 165.489 241.72C166.609 241.08 167.836 240.6 169.169 240.28C170.503 239.96 172.076 239.8 173.889 239.8C178.049 239.8 181.543 240.653 184.369 242.36C187.249 244.067 189.409 246.333 190.849 249.16C192.343 251.987 193.089 255.107 193.089 258.52C193.089 262.253 192.156 265.587 190.289 268.52C188.476 271.453 185.916 273.747 182.609 275.4C179.303 277.053 175.409 277.88 170.929 277.88ZM160.929 252.04L155.489 247L158.209 220.52H169.569L166.609 246.76L160.929 252.04ZM159.889 231.16L158.209 220.52H189.969V231.16H159.889ZM236.655 277L220.895 251.8H219.375L197.615 220.52H212.575L228.095 244.2H229.615L251.375 277H236.655ZM196.575 277L217.455 246.76L227.135 252.2L210.895 277H196.575ZM230.095 250.36L220.415 244.92L236.095 220.52H250.415L230.095 250.36ZM254.243 257.4L272.803 220.52H286.483L267.523 257.4H254.243ZM254.243 264.44V257.4L258.403 253.8H299.523V264.44H254.243ZM280.883 277V242.04H293.203V277H280.883ZM328.033 277.88C323.499 277.88 319.393 276.653 315.713 274.2C312.033 271.747 309.126 268.333 306.993 263.96C304.913 259.533 303.873 254.44 303.873 248.68C303.873 242.867 304.913 237.8 306.993 233.48C309.073 229.107 311.926 225.72 315.553 223.32C319.179 220.867 323.286 219.64 327.873 219.64C332.513 219.64 336.646 220.867 340.273 223.32C343.899 225.72 346.753 229.107 348.833 233.48C350.966 237.853 352.033 242.947 352.033 248.76C352.033 254.573 350.966 259.667 348.833 264.04C346.753 268.413 343.899 271.827 340.273 274.28C336.699 276.68 332.619 277.88 328.033 277.88ZM327.953 266.76C330.299 266.76 332.326 266.093 334.033 264.76C335.739 263.373 337.046 261.347 337.953 258.68C338.913 255.96 339.393 252.653 339.393 248.76C339.393 244.813 338.913 241.507 337.953 238.84C337.046 236.173 335.739 234.173 334.033 232.84C332.326 231.453 330.273 230.76 327.873 230.76C325.579 230.76 323.553 231.427 321.793 232.76C320.086 234.093 318.779 236.093 317.873 238.76C316.966 241.427 316.513 244.733 316.513 248.68C316.513 252.627 316.966 255.933 317.873 258.6C318.779 261.267 320.086 263.293 321.793 264.68C323.553 266.067 325.606 266.76 327.953 266.76ZM381.314 277.88C376.78 277.88 372.674 276.653 368.994 274.2C365.314 271.747 362.407 268.333 360.274 263.96C358.194 259.533 357.154 254.44 357.154 248.68C357.154 242.867 358.194 237.8 360.274 233.48C362.354 229.107 365.207 225.72 368.834 223.32C372.46 220.867 376.567 219.64 381.154 219.64C385.794 219.64 389.927 220.867 393.554 223.32C397.18 225.72 400.034 229.107 402.114 233.48C404.247 237.853 405.314 242.947 405.314 248.76C405.314 254.573 404.247 259.667 402.114 264.04C400.034 268.413 397.18 271.827 393.554 274.28C389.98 276.68 385.9 277.88 381.314 277.88ZM381.234 266.76C383.58 266.76 385.607 266.093 387.314 264.76C389.02 263.373 390.327 261.347 391.234 258.68C392.194 255.96 392.674 252.653 392.674 248.76C392.674 244.813 392.194 241.507 391.234 238.84C390.327 236.173 389.02 234.173 387.314 232.84C385.607 231.453 383.554 230.76 381.154 230.76C378.86 230.76 376.834 231.427 375.074 232.76C373.367 234.093 372.06 236.093 371.154 238.76C370.247 241.427 369.794 244.733 369.794 248.68C369.794 252.627 370.247 255.933 371.154 258.6C372.06 261.267 373.367 263.293 375.074 264.68C376.834 266.067 378.887 266.76 381.234 266.76Z" fill="#8B8B8B"/>
</svg>
