<svg width="516" height="631" viewBox="0 0 516 631" fill="none" xmlns="http://www.w3.org/2000/svg">
<g clip-path="url(#clip0_1620_527)">
<rect width="516" height="631" rx="16" fill="#CCCCCC"/>
<path d="M128.32 345.88C124.427 345.88 120.773 345.213 117.36 343.88C114 342.493 111.2 340.52 108.96 337.96L117.12 329.88C118.133 331.373 119.6 332.6 121.52 333.56C123.493 334.467 125.627 334.92 127.92 334.92C129.947 334.92 131.707 334.573 133.2 333.88C134.693 333.133 135.867 332.093 136.72 330.76C137.573 329.373 138 327.773 138 325.96C138 324.093 137.573 322.493 136.72 321.16C135.867 319.827 134.667 318.813 133.12 318.12C131.627 317.373 129.92 317 128 317C126.08 317 124.32 317.267 122.72 317.8C121.12 318.28 119.653 319.027 118.32 320.04L119.36 312.04C120.587 311.08 121.76 310.307 122.88 309.72C124 309.08 125.227 308.6 126.56 308.28C127.893 307.96 129.467 307.8 131.28 307.8C135.44 307.8 138.933 308.653 141.76 310.36C144.64 312.067 146.8 314.333 148.24 317.16C149.733 319.987 150.48 323.107 150.48 326.52C150.48 330.253 149.547 333.587 147.68 336.52C145.867 339.453 143.307 341.747 140 343.4C136.693 345.053 132.8 345.88 128.32 345.88ZM118.32 320.04L112.88 315L115.6 288.52H126.96L124 314.76L118.32 320.04ZM117.28 299.16L115.6 288.52H147.36V299.16H117.28ZM165.246 345V288.52H177.726V345H165.246ZM154.366 299.16V288.52H176.926V299.16H154.366ZM205.96 345.88C202.013 345.88 198.44 345 195.24 343.24C192.093 341.48 189.587 339.133 187.72 336.2C185.907 333.213 185 329.88 185 326.2C185 321.4 186.68 316.547 190.04 311.64L205.96 288.52H220.12L202.44 313.16L197.72 313.56C198.467 312.28 199.24 311.187 200.04 310.28C200.893 309.32 201.96 308.6 203.24 308.12C204.52 307.587 206.147 307.32 208.12 307.32C211.64 307.32 214.787 308.147 217.56 309.8C220.387 311.4 222.653 313.613 224.36 316.44C226.067 319.213 226.92 322.413 226.92 326.04C226.92 329.72 225.987 333.08 224.12 336.12C222.253 339.107 219.747 341.48 216.6 343.24C213.453 345 209.907 345.88 205.96 345.88ZM205.96 334.92C207.613 334.92 209.107 334.52 210.44 333.72C211.773 332.92 212.813 331.827 213.56 330.44C214.307 329.053 214.68 327.507 214.68 325.8C214.68 324.04 214.307 322.493 213.56 321.16C212.813 319.773 211.773 318.707 210.44 317.96C209.107 317.16 207.613 316.76 205.96 316.76C204.253 316.76 202.733 317.16 201.4 317.96C200.12 318.707 199.107 319.773 198.36 321.16C197.613 322.493 197.24 324.04 197.24 325.8C197.24 327.507 197.613 329.053 198.36 330.44C199.107 331.827 200.12 332.92 201.4 333.72C202.733 334.52 204.253 334.92 205.96 334.92ZM270.139 345L254.379 319.8H252.859L231.099 288.52H246.059L261.579 312.2H263.099L284.859 345H270.139ZM230.059 345L250.939 314.76L260.619 320.2L244.379 345H230.059ZM263.579 318.36L253.899 312.92L269.579 288.52H283.899L263.579 318.36ZM309.007 345.88C305.06 345.88 301.487 345 298.287 343.24C295.14 341.48 292.634 339.133 290.767 336.2C288.954 333.213 288.047 329.88 288.047 326.2C288.047 321.4 289.727 316.547 293.087 311.64L309.007 288.52H323.167L305.487 313.16L300.767 313.56C301.514 312.28 302.287 311.187 303.087 310.28C303.94 309.32 305.007 308.6 306.287 308.12C307.567 307.587 309.194 307.32 311.167 307.32C314.687 307.32 317.834 308.147 320.607 309.8C323.434 311.4 325.7 313.613 327.407 316.44C329.114 319.213 329.967 322.413 329.967 326.04C329.967 329.72 329.034 333.08 327.167 336.12C325.3 339.107 322.794 341.48 319.647 343.24C316.5 345 312.954 345.88 309.007 345.88ZM309.007 334.92C310.66 334.92 312.154 334.52 313.487 333.72C314.82 332.92 315.86 331.827 316.607 330.44C317.354 329.053 317.727 327.507 317.727 325.8C317.727 324.04 317.354 322.493 316.607 321.16C315.86 319.773 314.82 318.707 313.487 317.96C312.154 317.16 310.66 316.76 309.007 316.76C307.3 316.76 305.78 317.16 304.447 317.96C303.167 318.707 302.154 319.773 301.407 321.16C300.66 322.493 300.287 324.04 300.287 325.8C300.287 327.507 300.66 329.053 301.407 330.44C302.154 331.827 303.167 332.92 304.447 333.72C305.78 334.52 307.3 334.92 309.007 334.92ZM351.365 345.88C347.472 345.88 343.898 345.213 340.645 343.88C337.392 342.493 334.645 340.52 332.405 337.96L340.485 329.88C341.498 331.373 342.965 332.6 344.885 333.56C346.858 334.467 348.938 334.92 351.125 334.92C353.098 334.92 354.805 334.573 356.245 333.88C357.685 333.187 358.805 332.2 359.605 330.92C360.458 329.64 360.885 328.12 360.885 326.36C360.885 324.6 360.458 323.107 359.605 321.88C358.805 320.6 357.605 319.613 356.005 318.92C354.458 318.227 352.592 317.88 350.405 317.88C349.392 317.88 348.325 317.96 347.205 318.12C346.138 318.227 345.232 318.413 344.485 318.68L350.005 311.72C351.498 311.293 352.912 310.947 354.245 310.68C355.632 310.36 356.912 310.2 358.085 310.2C360.965 310.2 363.552 310.893 365.845 312.28C368.138 313.613 369.952 315.533 371.285 318.04C372.672 320.493 373.365 323.427 373.365 326.84C373.365 330.573 372.432 333.88 370.565 336.76C368.752 339.64 366.192 341.88 362.885 343.48C359.632 345.08 355.792 345.88 351.365 345.88ZM344.485 318.68V311.72L358.245 295.56L372.325 295.48L358.005 311.8L344.485 318.68ZM335.925 299.16V288.52H372.325V295.48L362.485 299.16H335.925ZM388.293 345V288.52H400.773V345H388.293ZM377.413 299.16V288.52H399.973V299.16H377.413Z" fill="#8B8B8B"/>
</g>
<defs>
<clipPath id="clip0_1620_527">
<rect width="516" height="631" fill="white"/>
</clipPath>
</defs>
</svg>
