<svg width="120" height="120" viewBox="0 0 120 120" fill="none" xmlns="http://www.w3.org/2000/svg">
<rect width="120" height="120" rx="12" fill="#CCCCCC"/>
<path d="M15.744 69V52.056H19.488V69H15.744ZM12.48 55.248V52.056H19.248V55.248H12.48ZM21.6463 66.888L28.1503 60.168C28.5503 59.768 28.8703 59.4 29.1103 59.064C29.3503 58.728 29.5263 58.416 29.6383 58.128C29.7503 57.824 29.8063 57.52 29.8063 57.216C29.8063 56.56 29.5903 56.048 29.1583 55.68C28.7423 55.296 28.1903 55.104 27.5023 55.104C26.8303 55.104 26.2223 55.288 25.6783 55.656C25.1503 56.008 24.6383 56.592 24.1423 57.408L21.6223 55.224C22.2943 54.088 23.1503 53.232 24.1903 52.656C25.2303 52.08 26.4223 51.792 27.7663 51.792C28.9343 51.792 29.9423 52.008 30.7903 52.44C31.6543 52.872 32.3183 53.488 32.7823 54.288C33.2623 55.088 33.5023 56.024 33.5023 57.096C33.5023 57.768 33.4143 58.392 33.2383 58.968C33.0623 59.528 32.7743 60.088 32.3743 60.648C31.9903 61.192 31.4703 61.792 30.8143 62.448L26.3023 66.936L21.6463 66.888ZM21.6463 69V66.888L24.8383 65.784H33.8383V69H21.6463ZM42.6332 69.264C41.2732 69.264 40.0412 68.896 38.9372 68.16C37.8332 67.424 36.9612 66.4 36.3212 65.088C35.6972 63.76 35.3852 62.232 35.3852 60.504C35.3852 58.76 35.6972 57.24 36.3212 55.944C36.9452 54.632 37.8012 53.616 38.8892 52.896C39.9772 52.16 41.2092 51.792 42.5852 51.792C43.9772 51.792 45.2172 52.16 46.3052 52.896C47.3932 53.616 48.2492 54.632 48.8732 55.944C49.5132 57.256 49.8332 58.784 49.8332 60.528C49.8332 62.272 49.5132 63.8 48.8732 65.112C48.2492 66.424 47.3932 67.448 46.3052 68.184C45.2332 68.904 44.0092 69.264 42.6332 69.264ZM42.6092 65.928C43.3132 65.928 43.9212 65.728 44.4332 65.328C44.9452 64.912 45.3372 64.304 45.6092 63.504C45.8972 62.688 46.0412 61.696 46.0412 60.528C46.0412 59.344 45.8972 58.352 45.6092 57.552C45.3372 56.752 44.9452 56.152 44.4332 55.752C43.9212 55.336 43.3052 55.128 42.5852 55.128C41.8972 55.128 41.2892 55.328 40.7612 55.728C40.2492 56.128 39.8572 56.728 39.5852 57.528C39.3132 58.328 39.1772 59.32 39.1772 60.504C39.1772 61.688 39.3132 62.68 39.5852 63.48C39.8572 64.28 40.2492 64.888 40.7612 65.304C41.2892 65.72 41.9052 65.928 42.6092 65.928ZM62.9856 69L58.2576 61.44H57.8016L51.2736 52.056H55.7616L60.4176 59.16H60.8736L67.4016 69H62.9856ZM50.9616 69L57.2256 59.928L60.1296 61.56L55.2576 69H50.9616ZM61.0176 61.008L58.1136 59.376L62.8176 52.056H67.1136L61.0176 61.008ZM71.5018 69V52.056H75.2458V69H71.5018ZM68.2378 55.248V52.056H75.0058V55.248H68.2378ZM77.4041 66.888L83.9081 60.168C84.3081 59.768 84.6281 59.4 84.8681 59.064C85.1081 58.728 85.2841 58.416 85.3961 58.128C85.5081 57.824 85.5641 57.52 85.5641 57.216C85.5641 56.56 85.3481 56.048 84.9161 55.68C84.5001 55.296 83.9481 55.104 83.2601 55.104C82.5881 55.104 81.9801 55.288 81.4361 55.656C80.9081 56.008 80.3961 56.592 79.9001 57.408L77.3801 55.224C78.0521 54.088 78.9081 53.232 79.9481 52.656C80.9881 52.08 82.1801 51.792 83.5241 51.792C84.6921 51.792 85.7001 52.008 86.5481 52.44C87.4121 52.872 88.0761 53.488 88.5401 54.288C89.0201 55.088 89.2601 56.024 89.2601 57.096C89.2601 57.768 89.1721 58.392 88.9961 58.968C88.8201 59.528 88.5321 60.088 88.1321 60.648C87.7481 61.192 87.2281 61.792 86.5721 62.448L82.0601 66.936L77.4041 66.888ZM77.4041 69V66.888L80.5961 65.784H89.5961V69H77.4041ZM98.391 69.264C97.031 69.264 95.799 68.896 94.695 68.16C93.591 67.424 92.719 66.4 92.079 65.088C91.455 63.76 91.143 62.232 91.143 60.504C91.143 58.76 91.455 57.24 92.079 55.944C92.703 54.632 93.559 53.616 94.647 52.896C95.735 52.16 96.967 51.792 98.343 51.792C99.735 51.792 100.975 52.16 102.063 52.896C103.151 53.616 104.007 54.632 104.631 55.944C105.271 57.256 105.591 58.784 105.591 60.528C105.591 62.272 105.271 63.8 104.631 65.112C104.007 66.424 103.151 67.448 102.063 68.184C100.991 68.904 99.767 69.264 98.391 69.264ZM98.367 65.928C99.071 65.928 99.679 65.728 100.191 65.328C100.703 64.912 101.095 64.304 101.367 63.504C101.655 62.688 101.799 61.696 101.799 60.528C101.799 59.344 101.655 58.352 101.367 57.552C101.095 56.752 100.703 56.152 100.191 55.752C99.679 55.336 99.063 55.128 98.343 55.128C97.655 55.128 97.047 55.328 96.519 55.728C96.007 56.128 95.615 56.728 95.343 57.528C95.071 58.328 94.935 59.32 94.935 60.504C94.935 61.688 95.071 62.68 95.343 63.48C95.615 64.28 96.007 64.888 96.519 65.304C97.047 65.72 97.663 65.928 98.367 65.928Z" fill="#8B8B8B"/>
</svg>
