<svg width="1068" height="685" viewBox="0 0 1068 685" fill="none" xmlns="http://www.w3.org/2000/svg">
<rect width="1068" height="685" rx="24" fill="#CCCCCC"/>
<path d="M213.4 398V292.1H236.8V398H213.4ZM193 312.05V292.1H235.3V312.05H193ZM296.789 399.65C288.289 399.65 280.589 397.35 273.689 392.75C266.789 388.15 261.339 381.75 257.339 373.55C253.439 365.25 251.489 355.7 251.489 344.9C251.489 334 253.439 324.5 257.339 316.4C261.239 308.2 266.589 301.85 273.389 297.35C280.189 292.75 287.889 290.45 296.489 290.45C305.189 290.45 312.939 292.75 319.739 297.35C326.539 301.85 331.889 308.2 335.789 316.4C339.789 324.6 341.789 334.15 341.789 345.05C341.789 355.95 339.789 365.5 335.789 373.7C331.889 381.9 326.539 388.3 319.739 392.9C313.039 397.4 305.389 399.65 296.789 399.65ZM296.639 378.8C301.039 378.8 304.839 377.55 308.039 375.05C311.239 372.45 313.689 368.65 315.389 363.65C317.189 358.55 318.089 352.35 318.089 345.05C318.089 337.65 317.189 331.45 315.389 326.45C313.689 321.45 311.239 317.7 308.039 315.2C304.839 312.6 300.989 311.3 296.489 311.3C292.189 311.3 288.389 312.55 285.089 315.05C281.889 317.55 279.439 321.3 277.739 326.3C276.039 331.3 275.189 337.5 275.189 344.9C275.189 352.3 276.039 358.5 277.739 363.5C279.439 368.5 281.889 372.3 285.089 374.9C288.389 377.5 292.239 378.8 296.639 378.8ZM389.642 399.65C382.242 399.65 375.542 398 369.542 394.7C363.642 391.4 358.942 387 355.442 381.5C352.042 375.9 350.342 369.65 350.342 362.75C350.342 353.75 353.492 344.65 359.792 335.45L389.642 292.1H416.192L383.042 338.3L374.192 339.05C375.592 336.65 377.042 334.6 378.542 332.9C380.142 331.1 382.142 329.75 384.542 328.85C386.942 327.85 389.992 327.35 393.692 327.35C400.292 327.35 406.192 328.9 411.392 332C416.692 335 420.942 339.15 424.142 344.45C427.342 349.65 428.942 355.65 428.942 362.45C428.942 369.35 427.192 375.65 423.692 381.35C420.192 386.95 415.492 391.4 409.592 394.7C403.692 398 397.042 399.65 389.642 399.65ZM389.642 379.1C392.742 379.1 395.542 378.35 398.042 376.85C400.542 375.35 402.492 373.3 403.892 370.7C405.292 368.1 405.992 365.2 405.992 362C405.992 358.7 405.292 355.8 403.892 353.3C402.492 350.7 400.542 348.7 398.042 347.3C395.542 345.8 392.742 345.05 389.642 345.05C386.442 345.05 383.592 345.8 381.092 347.3C378.692 348.7 376.792 350.7 375.392 353.3C373.992 355.8 373.292 358.7 373.292 362C373.292 365.2 373.992 368.1 375.392 370.7C376.792 373.3 378.692 375.35 381.092 376.85C383.592 378.35 386.442 379.1 389.642 379.1ZM474.728 399.65C467.128 399.65 460.478 398.3 454.778 395.6C449.178 392.9 444.778 389.2 441.578 384.5C438.478 379.8 436.928 374.45 436.928 368.45C436.928 363.45 437.878 358.95 439.778 354.95C441.778 350.95 444.528 347.6 448.028 344.9C451.628 342.2 455.778 340.35 460.478 339.35L460.028 344.15C456.028 343.25 452.628 341.6 449.828 339.2C447.028 336.7 444.878 333.7 443.378 330.2C441.878 326.7 441.128 323.05 441.128 319.25C441.128 313.65 442.528 308.7 445.328 304.4C448.228 300 452.228 296.55 457.328 294.05C462.428 291.55 468.228 290.3 474.728 290.3C481.328 290.3 487.128 291.55 492.128 294.05C497.228 296.55 501.178 300 503.978 304.4C506.878 308.7 508.328 313.65 508.328 319.25C508.328 323.05 507.578 326.7 506.078 330.2C504.678 333.7 502.578 336.7 499.778 339.2C496.978 341.6 493.578 343.25 489.578 344.15L488.978 339.35C493.778 340.35 497.928 342.2 501.428 344.9C505.028 347.6 507.778 350.95 509.678 354.95C511.578 358.95 512.528 363.45 512.528 368.45C512.528 374.45 510.978 379.8 507.878 384.5C504.778 389.2 500.378 392.9 494.678 395.6C489.078 398.3 482.428 399.65 474.728 399.65ZM474.728 379.55C477.728 379.55 480.378 378.95 482.678 377.75C484.978 376.45 486.778 374.7 488.078 372.5C489.478 370.3 490.178 367.85 490.178 365.15C490.178 362.35 489.478 359.9 488.078 357.8C486.778 355.6 484.978 353.9 482.678 352.7C480.378 351.4 477.728 350.75 474.728 350.75C471.728 350.75 469.078 351.4 466.778 352.7C464.478 353.9 462.678 355.6 461.378 357.8C460.078 359.9 459.428 362.35 459.428 365.15C459.428 367.85 460.078 370.3 461.378 372.5C462.678 374.7 464.478 376.45 466.778 377.75C469.078 378.95 471.728 379.55 474.728 379.55ZM474.728 333.65C478.228 333.65 481.078 332.55 483.278 330.35C485.578 328.05 486.728 325.2 486.728 321.8C486.728 318.3 485.578 315.45 483.278 313.25C481.078 310.95 478.228 309.8 474.728 309.8C471.328 309.8 468.478 310.9 466.178 313.1C463.878 315.3 462.728 318.15 462.728 321.65C462.728 325.05 463.878 327.9 466.178 330.2C468.478 332.5 471.328 333.65 474.728 333.65ZM594.207 398L564.657 350.75H561.807L521.007 292.1H549.057L578.157 336.5H581.007L621.807 398H594.207ZM519.057 398L558.207 341.3L576.357 351.5L545.907 398H519.057ZM581.907 348.05L563.757 337.85L593.157 292.1H620.007L581.907 348.05ZM667.083 399.65C659.683 399.65 652.983 398 646.983 394.7C641.083 391.4 636.383 387 632.883 381.5C629.483 375.9 627.783 369.65 627.783 362.75C627.783 353.75 630.933 344.65 637.233 335.45L667.083 292.1H693.633L660.483 338.3L651.633 339.05C653.033 336.65 654.483 334.6 655.983 332.9C657.583 331.1 659.583 329.75 661.983 328.85C664.383 327.85 667.433 327.35 671.133 327.35C677.733 327.35 683.633 328.9 688.833 332C694.133 335 698.383 339.15 701.583 344.45C704.783 349.65 706.383 355.65 706.383 362.45C706.383 369.35 704.633 375.65 701.133 381.35C697.633 386.95 692.933 391.4 687.033 394.7C681.133 398 674.483 399.65 667.083 399.65ZM667.083 379.1C670.183 379.1 672.983 378.35 675.483 376.85C677.983 375.35 679.933 373.3 681.333 370.7C682.733 368.1 683.433 365.2 683.433 362C683.433 358.7 682.733 355.8 681.333 353.3C679.933 350.7 677.983 348.7 675.483 347.3C672.983 345.8 670.183 345.05 667.083 345.05C663.883 345.05 661.033 345.8 658.533 347.3C656.133 348.7 654.233 350.7 652.833 353.3C651.433 355.8 650.733 358.7 650.733 362C650.733 365.2 651.433 368.1 652.833 370.7C654.233 373.3 656.133 375.35 658.533 376.85C661.033 378.35 663.883 379.1 667.083 379.1ZM752.17 399.65C744.57 399.65 737.92 398.3 732.22 395.6C726.62 392.9 722.22 389.2 719.02 384.5C715.92 379.8 714.37 374.45 714.37 368.45C714.37 363.45 715.32 358.95 717.22 354.95C719.22 350.95 721.97 347.6 725.47 344.9C729.07 342.2 733.22 340.35 737.92 339.35L737.47 344.15C733.47 343.25 730.07 341.6 727.27 339.2C724.47 336.7 722.32 333.7 720.82 330.2C719.32 326.7 718.57 323.05 718.57 319.25C718.57 313.65 719.97 308.7 722.77 304.4C725.67 300 729.67 296.55 734.77 294.05C739.87 291.55 745.67 290.3 752.17 290.3C758.77 290.3 764.57 291.55 769.57 294.05C774.67 296.55 778.62 300 781.42 304.4C784.32 308.7 785.77 313.65 785.77 319.25C785.77 323.05 785.02 326.7 783.52 330.2C782.12 333.7 780.02 336.7 777.22 339.2C774.42 341.6 771.02 343.25 767.02 344.15L766.42 339.35C771.22 340.35 775.37 342.2 778.87 344.9C782.47 347.6 785.22 350.95 787.12 354.95C789.02 358.95 789.97 363.45 789.97 368.45C789.97 374.45 788.42 379.8 785.32 384.5C782.22 389.2 777.82 392.9 772.12 395.6C766.52 398.3 759.87 399.65 752.17 399.65ZM752.17 379.55C755.17 379.55 757.82 378.95 760.12 377.75C762.42 376.45 764.22 374.7 765.52 372.5C766.92 370.3 767.62 367.85 767.62 365.15C767.62 362.35 766.92 359.9 765.52 357.8C764.22 355.6 762.42 353.9 760.12 352.7C757.82 351.4 755.17 350.75 752.17 350.75C749.17 350.75 746.52 351.4 744.22 352.7C741.92 353.9 740.12 355.6 738.82 357.8C737.52 359.9 736.87 362.35 736.87 365.15C736.87 367.85 737.52 370.3 738.82 372.5C740.12 374.7 741.92 376.45 744.22 377.75C746.52 378.95 749.17 379.55 752.17 379.55ZM752.17 333.65C755.67 333.65 758.52 332.55 760.72 330.35C763.02 328.05 764.17 325.2 764.17 321.8C764.17 318.3 763.02 315.45 760.72 313.25C758.52 310.95 755.67 309.8 752.17 309.8C748.77 309.8 745.92 310.9 743.62 313.1C741.32 315.3 740.17 318.15 740.17 321.65C740.17 325.05 741.32 327.9 743.62 330.2C745.92 332.5 748.77 333.65 752.17 333.65ZM832.348 399.65C825.048 399.65 818.198 398.4 811.798 395.9C805.498 393.3 800.248 389.6 796.048 384.8L811.348 369.65C813.248 372.45 815.998 374.75 819.598 376.55C823.298 378.25 827.298 379.1 831.598 379.1C835.398 379.1 838.698 378.45 841.498 377.15C844.298 375.75 846.498 373.8 848.098 371.3C849.698 368.7 850.498 365.7 850.498 362.3C850.498 358.8 849.698 355.8 848.098 353.3C846.498 350.8 844.248 348.9 841.348 347.6C838.548 346.2 835.348 345.5 831.748 345.5C828.148 345.5 824.848 346 821.848 347C818.848 347.9 816.098 349.3 813.598 351.2L815.548 336.2C817.848 334.4 820.048 332.95 822.148 331.85C824.248 330.65 826.548 329.75 829.048 329.15C831.548 328.55 834.498 328.25 837.898 328.25C845.698 328.25 852.248 329.85 857.548 333.05C862.948 336.25 866.998 340.5 869.698 345.8C872.498 351.1 873.898 356.95 873.898 363.35C873.898 370.35 872.148 376.6 868.648 382.1C865.248 387.6 860.448 391.9 854.248 395C848.048 398.1 840.748 399.65 832.348 399.65ZM813.598 351.2L803.398 341.75L808.498 292.1H829.798L824.248 341.3L813.598 351.2ZM811.648 312.05L808.498 292.1H868.048V312.05H811.648Z" fill="#8B8B8B"/>
</svg>
