<svg width="378" height="440" viewBox="0 0 378 440" fill="none" xmlns="http://www.w3.org/2000/svg">
<rect width="378" height="440" rx="16" fill="#CCCCCC"/>
<path d="M77.18 242.66C74.26 242.66 71.58 242.16 69.14 241.16C66.7 240.12 64.64 238.64 62.96 236.72L69.02 230.66C69.78 231.78 70.88 232.7 72.32 233.42C73.8 234.1 75.36 234.44 77 234.44C78.48 234.44 79.76 234.18 80.84 233.66C81.92 233.14 82.76 232.4 83.36 231.44C84 230.48 84.32 229.34 84.32 228.02C84.32 226.7 84 225.58 83.36 224.66C82.76 223.7 81.86 222.96 80.66 222.44C79.5 221.92 78.1 221.66 76.46 221.66C75.7 221.66 74.9 221.72 74.06 221.84C73.26 221.92 72.58 222.06 72.02 222.26L76.16 217.04C77.28 216.72 78.34 216.46 79.34 216.26C80.38 216.02 81.34 215.9 82.22 215.9C84.38 215.9 86.32 216.42 88.04 217.46C89.76 218.46 91.12 219.9 92.12 221.78C93.16 223.62 93.68 225.82 93.68 228.38C93.68 231.18 92.98 233.66 91.58 235.82C90.22 237.98 88.3 239.66 85.82 240.86C83.38 242.06 80.5 242.66 77.18 242.66ZM72.02 222.26V217.04L82.34 204.92L92.9 204.86L82.16 217.1L72.02 222.26ZM65.6 207.62V199.64H92.9V204.86L85.52 207.62H65.6ZM101.418 242L115.818 204.92H124.998L111.138 242H101.418ZM95.7781 207.62V199.64H124.998V204.92L121.878 207.62H95.7781ZM142.317 242.66C139.277 242.66 136.617 242.12 134.337 241.04C132.097 239.96 130.337 238.48 129.057 236.6C127.817 234.72 127.197 232.58 127.197 230.18C127.197 228.18 127.577 226.38 128.337 224.78C129.137 223.18 130.237 221.84 131.637 220.76C133.077 219.68 134.737 218.94 136.617 218.54L136.437 220.46C134.837 220.1 133.477 219.44 132.357 218.48C131.237 217.48 130.377 216.28 129.777 214.88C129.177 213.48 128.877 212.02 128.877 210.5C128.877 208.26 129.437 206.28 130.557 204.56C131.717 202.8 133.317 201.42 135.357 200.42C137.397 199.42 139.717 198.92 142.317 198.92C144.957 198.92 147.277 199.42 149.277 200.42C151.317 201.42 152.897 202.8 154.017 204.56C155.177 206.28 155.757 208.26 155.757 210.5C155.757 212.02 155.457 213.48 154.857 214.88C154.297 216.28 153.457 217.48 152.337 218.48C151.217 219.44 149.857 220.1 148.257 220.46L148.017 218.54C149.937 218.94 151.597 219.68 152.997 220.76C154.437 221.84 155.537 223.18 156.297 224.78C157.057 226.38 157.437 228.18 157.437 230.18C157.437 232.58 156.817 234.72 155.577 236.6C154.337 238.48 152.577 239.96 150.297 241.04C148.057 242.12 145.397 242.66 142.317 242.66ZM142.317 234.62C143.517 234.62 144.577 234.38 145.497 233.9C146.417 233.38 147.137 232.68 147.657 231.8C148.217 230.92 148.497 229.94 148.497 228.86C148.497 227.74 148.217 226.76 147.657 225.92C147.137 225.04 146.417 224.36 145.497 223.88C144.577 223.36 143.517 223.1 142.317 223.1C141.117 223.1 140.057 223.36 139.137 223.88C138.217 224.36 137.497 225.04 136.977 225.92C136.457 226.76 136.197 227.74 136.197 228.86C136.197 229.94 136.457 230.92 136.977 231.8C137.497 232.68 138.217 233.38 139.137 233.9C140.057 234.38 141.117 234.62 142.317 234.62ZM142.317 216.26C143.717 216.26 144.857 215.82 145.737 214.94C146.657 214.02 147.117 212.88 147.117 211.52C147.117 210.12 146.657 208.98 145.737 208.1C144.857 207.18 143.717 206.72 142.317 206.72C140.957 206.72 139.817 207.16 138.897 208.04C137.977 208.92 137.517 210.06 137.517 211.46C137.517 212.82 137.977 213.96 138.897 214.88C139.817 215.8 140.957 216.26 142.317 216.26ZM190.108 242L178.288 223.1H177.148L160.828 199.64H172.048L183.688 217.4H184.828L201.148 242H190.108ZM160.048 242L175.708 219.32L182.968 223.4L170.788 242H160.048ZM185.188 222.02L177.928 217.94L189.688 199.64H200.428L185.188 222.02ZM203.299 227.3L217.219 199.64H227.479L213.259 227.3H203.299ZM203.299 232.58V227.3L206.419 224.6H237.259V232.58H203.299ZM223.279 242V215.78H232.519V242H223.279ZM239.276 227.3L253.196 199.64H263.456L249.236 227.3H239.276ZM239.276 232.58V227.3L242.396 224.6H273.236V232.58H239.276ZM259.256 242V215.78H268.496V242H259.256ZM294.618 242.66C291.218 242.66 288.138 241.74 285.378 239.9C282.618 238.06 280.438 235.5 278.838 232.22C277.278 228.9 276.498 225.08 276.498 220.76C276.498 216.4 277.278 212.6 278.838 209.36C280.398 206.08 282.538 203.54 285.258 201.74C287.978 199.9 291.058 198.98 294.498 198.98C297.978 198.98 301.078 199.9 303.798 201.74C306.518 203.54 308.658 206.08 310.218 209.36C311.818 212.64 312.618 216.46 312.618 220.82C312.618 225.18 311.818 229 310.218 232.28C308.658 235.56 306.518 238.12 303.798 239.96C301.118 241.76 298.058 242.66 294.618 242.66ZM294.558 234.32C296.318 234.32 297.838 233.82 299.118 232.82C300.398 231.78 301.378 230.26 302.058 228.26C302.778 226.22 303.138 223.74 303.138 220.82C303.138 217.86 302.778 215.38 302.058 213.38C301.378 211.38 300.398 209.88 299.118 208.88C297.838 207.84 296.298 207.32 294.498 207.32C292.778 207.32 291.258 207.82 289.938 208.82C288.658 209.82 287.678 211.32 286.998 213.32C286.318 215.32 285.978 217.8 285.978 220.76C285.978 223.72 286.318 226.2 286.998 228.2C287.678 230.2 288.658 231.72 289.938 232.76C291.258 233.8 292.798 234.32 294.558 234.32Z" fill="#8B8B8B"/>
</svg>
