<svg width="1920" height="800" viewBox="0 0 1920 800" fill="none" xmlns="http://www.w3.org/2000/svg">
<rect width="1920" height="800" fill="#CCCCCC"/>
<path d="M400 493V316.5H439V493H400ZM366 349.75V316.5H436.5V349.75H366ZM482.732 493L538.232 415.75L552.732 414.75C550.566 418.583 548.149 422 545.482 425C542.982 427.833 539.732 430.083 535.732 431.75C531.899 433.25 526.732 434 520.232 434C509.566 434 499.732 431.5 490.732 426.5C481.899 421.333 474.816 414.417 469.482 405.75C464.316 396.917 461.732 386.917 461.732 375.75C461.732 364.083 464.649 353.583 470.482 344.25C476.316 334.917 484.149 327.5 493.982 322C503.816 316.5 514.899 313.75 527.232 313.75C539.566 313.75 550.649 316.5 560.482 322C570.316 327.333 578.066 334.667 583.732 344C589.566 353.167 592.482 363.583 592.482 375.25C592.482 390.25 587.316 405.333 576.982 420.5L527.232 493H482.732ZM527.232 404.75C532.399 404.75 537.066 403.5 541.232 401C545.399 398.5 548.649 395.167 550.982 391C553.316 386.667 554.482 381.833 554.482 376.5C554.482 371 553.316 366.083 550.982 361.75C548.649 357.417 545.399 354.083 541.232 351.75C537.066 349.25 532.399 348 527.232 348C521.899 348 517.149 349.25 512.982 351.75C508.982 354.083 505.732 357.417 503.232 361.75C500.899 366.083 499.732 371 499.732 376.5C499.732 381.833 500.899 386.667 503.232 391C505.732 395.167 509.066 398.5 513.232 401C517.399 403.5 522.066 404.75 527.232 404.75ZM603.816 471L671.566 401C675.733 396.833 679.066 393 681.566 389.5C684.066 386 685.9 382.75 687.066 379.75C688.233 376.583 688.816 373.417 688.816 370.25C688.816 363.417 686.566 358.083 682.066 354.25C677.733 350.25 671.983 348.25 664.816 348.25C657.816 348.25 651.483 350.167 645.816 354C640.316 357.667 634.983 363.75 629.816 372.25L603.566 349.5C610.566 337.667 619.483 328.75 630.316 322.75C641.15 316.75 653.566 313.75 667.566 313.75C679.733 313.75 690.233 316 699.066 320.5C708.066 325 714.983 331.417 719.816 339.75C724.816 348.083 727.316 357.833 727.316 369C727.316 376 726.4 382.5 724.566 388.5C722.733 394.333 719.733 400.167 715.566 406C711.566 411.667 706.15 417.917 699.316 424.75L652.316 471.5L603.816 471ZM603.816 493V471L637.066 459.5H730.816V493H603.816ZM822.43 495.75C808.263 495.75 795.43 491.917 783.93 484.25C772.43 476.583 763.346 465.917 756.68 452.25C750.18 438.417 746.93 422.5 746.93 404.5C746.93 386.333 750.18 370.5 756.68 357C763.18 343.333 772.096 332.75 783.43 325.25C794.763 317.583 807.596 313.75 821.93 313.75C836.43 313.75 849.346 317.583 860.68 325.25C872.013 332.75 880.93 343.333 887.43 357C894.096 370.667 897.43 386.583 897.43 404.75C897.43 422.917 894.096 438.833 887.43 452.5C880.93 466.167 872.013 476.833 860.68 484.5C849.513 492 836.763 495.75 822.43 495.75ZM822.18 461C829.513 461 835.846 458.917 841.18 454.75C846.513 450.417 850.596 444.083 853.43 435.75C856.43 427.25 857.93 416.917 857.93 404.75C857.93 392.417 856.43 382.083 853.43 373.75C850.596 365.417 846.513 359.167 841.18 355C835.846 350.667 829.43 348.5 821.93 348.5C814.763 348.5 808.43 350.583 802.93 354.75C797.596 358.917 793.513 365.167 790.68 373.5C787.846 381.833 786.43 392.167 786.43 404.5C786.43 416.833 787.846 427.167 790.68 435.5C793.513 443.833 797.596 450.167 802.93 454.5C808.43 458.833 814.846 461 822.18 461ZM1034.43 493L985.184 414.25H980.434L912.434 316.5H959.184L1007.68 390.5H1012.43L1080.43 493H1034.43ZM909.184 493L974.434 398.5L1004.68 415.5L953.934 493H909.184ZM1013.93 409.75L983.684 392.75L1032.68 316.5H1077.43L1013.93 409.75ZM1154.39 495.75C1141.73 495.75 1130.64 493.5 1121.14 489C1111.81 484.5 1104.48 478.333 1099.14 470.5C1093.98 462.667 1091.39 453.75 1091.39 443.75C1091.39 435.417 1092.98 427.917 1096.14 421.25C1099.48 414.583 1104.06 409 1109.89 404.5C1115.89 400 1122.81 396.917 1130.64 395.25L1129.89 403.25C1123.23 401.75 1117.56 399 1112.89 395C1108.23 390.833 1104.64 385.833 1102.14 380C1099.64 374.167 1098.39 368.083 1098.39 361.75C1098.39 352.417 1100.73 344.167 1105.39 337C1110.23 329.667 1116.89 323.917 1125.39 319.75C1133.89 315.583 1143.56 313.5 1154.39 313.5C1165.39 313.5 1175.06 315.583 1183.39 319.75C1191.89 323.917 1198.48 329.667 1203.14 337C1207.98 344.167 1210.39 352.417 1210.39 361.75C1210.39 368.083 1209.14 374.167 1206.64 380C1204.31 385.833 1200.81 390.833 1196.14 395C1191.48 399 1185.81 401.75 1179.14 403.25L1178.14 395.25C1186.14 396.917 1193.06 400 1198.89 404.5C1204.89 409 1209.48 414.583 1212.64 421.25C1215.81 427.917 1217.39 435.417 1217.39 443.75C1217.39 453.75 1214.81 462.667 1209.64 470.5C1204.48 478.333 1197.14 484.5 1187.64 489C1178.31 493.5 1167.23 495.75 1154.39 495.75ZM1154.39 462.25C1159.39 462.25 1163.81 461.25 1167.64 459.25C1171.48 457.083 1174.48 454.167 1176.64 450.5C1178.98 446.833 1180.14 442.75 1180.14 438.25C1180.14 433.583 1178.98 429.5 1176.64 426C1174.48 422.333 1171.48 419.5 1167.64 417.5C1163.81 415.333 1159.39 414.25 1154.39 414.25C1149.39 414.25 1144.98 415.333 1141.14 417.5C1137.31 419.5 1134.31 422.333 1132.14 426C1129.98 429.5 1128.89 433.583 1128.89 438.25C1128.89 442.75 1129.98 446.833 1132.14 450.5C1134.31 454.167 1137.31 457.083 1141.14 459.25C1144.98 461.25 1149.39 462.25 1154.39 462.25ZM1154.39 385.75C1160.23 385.75 1164.98 383.917 1168.64 380.25C1172.48 376.417 1174.39 371.667 1174.39 366C1174.39 360.167 1172.48 355.417 1168.64 351.75C1164.98 347.917 1160.23 346 1154.39 346C1148.73 346 1143.98 347.833 1140.14 351.5C1136.31 355.167 1134.39 359.917 1134.39 365.75C1134.39 371.417 1136.31 376.167 1140.14 380C1143.98 383.833 1148.73 385.75 1154.39 385.75ZM1308.03 495.75C1293.86 495.75 1281.03 491.917 1269.53 484.25C1258.03 476.583 1248.94 465.917 1242.28 452.25C1235.78 438.417 1232.53 422.5 1232.53 404.5C1232.53 386.333 1235.78 370.5 1242.28 357C1248.78 343.333 1257.69 332.75 1269.03 325.25C1280.36 317.583 1293.19 313.75 1307.53 313.75C1322.03 313.75 1334.94 317.583 1346.28 325.25C1357.61 332.75 1366.53 343.333 1373.03 357C1379.69 370.667 1383.03 386.583 1383.03 404.75C1383.03 422.917 1379.69 438.833 1373.03 452.5C1366.53 466.167 1357.61 476.833 1346.28 484.5C1335.11 492 1322.36 495.75 1308.03 495.75ZM1307.78 461C1315.11 461 1321.44 458.917 1326.78 454.75C1332.11 450.417 1336.19 444.083 1339.03 435.75C1342.03 427.25 1343.53 416.917 1343.53 404.75C1343.53 392.417 1342.03 382.083 1339.03 373.75C1336.19 365.417 1332.11 359.167 1326.78 355C1321.44 350.667 1315.03 348.5 1307.53 348.5C1300.36 348.5 1294.03 350.583 1288.53 354.75C1283.19 358.917 1279.11 365.167 1276.28 373.5C1273.44 381.833 1272.03 392.167 1272.03 404.5C1272.03 416.833 1273.44 427.167 1276.28 435.5C1279.11 443.833 1283.19 450.167 1288.53 454.5C1294.03 458.833 1300.44 461 1307.78 461ZM1474.53 495.75C1460.36 495.75 1447.53 491.917 1436.03 484.25C1424.53 476.583 1415.45 465.917 1408.78 452.25C1402.28 438.417 1399.03 422.5 1399.03 404.5C1399.03 386.333 1402.28 370.5 1408.78 357C1415.28 343.333 1424.2 332.75 1435.53 325.25C1446.86 317.583 1459.7 313.75 1474.03 313.75C1488.53 313.75 1501.45 317.583 1512.78 325.25C1524.11 332.75 1533.03 343.333 1539.53 357C1546.2 370.667 1549.53 386.583 1549.53 404.75C1549.53 422.917 1546.2 438.833 1539.53 452.5C1533.03 466.167 1524.11 476.833 1512.78 484.5C1501.61 492 1488.86 495.75 1474.53 495.75ZM1474.28 461C1481.61 461 1487.95 458.917 1493.28 454.75C1498.61 450.417 1502.7 444.083 1505.53 435.75C1508.53 427.25 1510.03 416.917 1510.03 404.75C1510.03 392.417 1508.53 382.083 1505.53 373.75C1502.7 365.417 1498.61 359.167 1493.28 355C1487.95 350.667 1481.53 348.5 1474.03 348.5C1466.86 348.5 1460.53 350.583 1455.03 354.75C1449.7 358.917 1445.61 365.167 1442.78 373.5C1439.95 381.833 1438.53 392.167 1438.53 404.5C1438.53 416.833 1439.95 427.167 1442.78 435.5C1445.61 443.833 1449.7 450.167 1455.03 454.5C1460.53 458.833 1466.95 461 1474.28 461Z" fill="#8B8B8B"/>
</svg>
