<svg width="346" height="320" viewBox="0 0 346 320" fill="none" xmlns="http://www.w3.org/2000/svg">
<rect width="346" height="320" rx="12" fill="#CCCCCC"/>
<path d="M60.18 182.66C57.26 182.66 54.58 182.16 52.14 181.16C49.7 180.12 47.64 178.64 45.96 176.72L52.02 170.66C52.78 171.78 53.88 172.7 55.32 173.42C56.8 174.1 58.36 174.44 60 174.44C61.48 174.44 62.76 174.18 63.84 173.66C64.92 173.14 65.76 172.4 66.36 171.44C67 170.48 67.32 169.34 67.32 168.02C67.32 166.7 67 165.58 66.36 164.66C65.76 163.7 64.86 162.96 63.66 162.44C62.5 161.92 61.1 161.66 59.46 161.66C58.7 161.66 57.9 161.72 57.06 161.84C56.26 161.92 55.58 162.06 55.02 162.26L59.16 157.04C60.28 156.72 61.34 156.46 62.34 156.26C63.38 156.02 64.34 155.9 65.22 155.9C67.38 155.9 69.32 156.42 71.04 157.46C72.76 158.46 74.12 159.9 75.12 161.78C76.16 163.62 76.68 165.82 76.68 168.38C76.68 171.18 75.98 173.66 74.58 175.82C73.22 177.98 71.3 179.66 68.82 180.86C66.38 182.06 63.5 182.66 60.18 182.66ZM55.02 162.26V157.04L65.34 144.92L75.9 144.86L65.16 157.1L55.02 162.26ZM48.6 147.62V139.64H75.9V144.86L68.52 147.62H48.6ZM79.7756 167.3L93.6956 139.64H103.956L89.7356 167.3H79.7756ZM79.7756 172.58V167.3L82.8956 164.6H113.736V172.58H79.7756ZM99.7556 182V155.78H108.996V182H99.7556ZM132.298 182.66C129.338 182.66 126.658 182 124.258 180.68C121.898 179.36 120.018 177.6 118.618 175.4C117.258 173.16 116.578 170.66 116.578 167.9C116.578 164.3 117.838 160.66 120.358 156.98L132.298 139.64H142.918L129.658 158.12L126.118 158.42C126.678 157.46 127.258 156.64 127.858 155.96C128.498 155.24 129.298 154.7 130.258 154.34C131.218 153.94 132.438 153.74 133.918 153.74C136.558 153.74 138.918 154.36 140.998 155.6C143.118 156.8 144.818 158.46 146.098 160.58C147.378 162.66 148.018 165.06 148.018 167.78C148.018 170.54 147.318 173.06 145.918 175.34C144.518 177.58 142.638 179.36 140.278 180.68C137.918 182 135.258 182.66 132.298 182.66ZM132.298 174.44C133.538 174.44 134.658 174.14 135.658 173.54C136.658 172.94 137.438 172.12 137.998 171.08C138.558 170.04 138.838 168.88 138.838 167.6C138.838 166.28 138.558 165.12 137.998 164.12C137.438 163.08 136.658 162.28 135.658 161.72C134.658 161.12 133.538 160.82 132.298 160.82C131.018 160.82 129.878 161.12 128.878 161.72C127.918 162.28 127.158 163.08 126.598 164.12C126.038 165.12 125.758 166.28 125.758 167.6C125.758 168.88 126.038 170.04 126.598 171.08C127.158 172.12 127.918 172.94 128.878 173.54C129.878 174.14 131.018 174.44 132.298 174.44ZM180.433 182L168.613 163.1H167.473L151.153 139.64H162.373L174.013 157.4H175.153L191.473 182H180.433ZM150.373 182L166.033 159.32L173.293 163.4L161.113 182H150.373ZM175.513 162.02L168.253 157.94L180.013 139.64H190.753L175.513 162.02ZM207.543 182.66C204.623 182.66 201.943 182.16 199.503 181.16C197.063 180.12 195.003 178.64 193.323 176.72L199.383 170.66C200.143 171.78 201.243 172.7 202.683 173.42C204.163 174.1 205.723 174.44 207.363 174.44C208.843 174.44 210.123 174.18 211.203 173.66C212.283 173.14 213.123 172.4 213.723 171.44C214.363 170.48 214.683 169.34 214.683 168.02C214.683 166.7 214.363 165.58 213.723 164.66C213.123 163.7 212.223 162.96 211.023 162.44C209.863 161.92 208.463 161.66 206.823 161.66C206.063 161.66 205.263 161.72 204.423 161.84C203.623 161.92 202.943 162.06 202.383 162.26L206.523 157.04C207.643 156.72 208.703 156.46 209.703 156.26C210.743 156.02 211.703 155.9 212.583 155.9C214.743 155.9 216.683 156.42 218.403 157.46C220.123 158.46 221.483 159.9 222.483 161.78C223.523 163.62 224.043 165.82 224.043 168.38C224.043 171.18 223.343 173.66 221.943 175.82C220.583 177.98 218.663 179.66 216.183 180.86C213.743 182.06 210.863 182.66 207.543 182.66ZM202.383 162.26V157.04L212.703 144.92L223.263 144.86L212.523 157.1L202.383 162.26ZM195.963 147.62V139.64H223.263V144.86L215.883 147.62H195.963ZM227.319 176.72L243.579 159.92C244.579 158.92 245.379 158 245.979 157.16C246.579 156.32 247.019 155.54 247.299 154.82C247.579 154.06 247.719 153.3 247.719 152.54C247.719 150.9 247.179 149.62 246.099 148.7C245.059 147.74 243.679 147.26 241.959 147.26C240.279 147.26 238.759 147.72 237.399 148.64C236.079 149.52 234.799 150.98 233.559 153.02L227.259 147.56C228.939 144.72 231.079 142.58 233.679 141.14C236.279 139.7 239.259 138.98 242.619 138.98C245.539 138.98 248.059 139.52 250.179 140.6C252.339 141.68 253.999 143.22 255.159 145.22C256.359 147.22 256.959 149.56 256.959 152.24C256.959 153.92 256.739 155.48 256.299 156.92C255.859 158.32 255.139 159.72 254.139 161.12C253.179 162.48 251.879 163.98 250.239 165.62L238.959 176.84L227.319 176.72ZM227.319 182V176.72L235.299 173.96H257.799V182H227.319ZM279.786 182.66C276.386 182.66 273.306 181.74 270.546 179.9C267.786 178.06 265.606 175.5 264.006 172.22C262.446 168.9 261.666 165.08 261.666 160.76C261.666 156.4 262.446 152.6 264.006 149.36C265.566 146.08 267.706 143.54 270.426 141.74C273.146 139.9 276.226 138.98 279.666 138.98C283.146 138.98 286.246 139.9 288.966 141.74C291.686 143.54 293.826 146.08 295.386 149.36C296.986 152.64 297.786 156.46 297.786 160.82C297.786 165.18 296.986 169 295.386 172.28C293.826 175.56 291.686 178.12 288.966 179.96C286.286 181.76 283.226 182.66 279.786 182.66ZM279.726 174.32C281.486 174.32 283.006 173.82 284.286 172.82C285.566 171.78 286.546 170.26 287.226 168.26C287.946 166.22 288.306 163.74 288.306 160.82C288.306 157.86 287.946 155.38 287.226 153.38C286.546 151.38 285.566 149.88 284.286 148.88C283.006 147.84 281.466 147.32 279.666 147.32C277.946 147.32 276.426 147.82 275.106 148.82C273.826 149.82 272.846 151.32 272.166 153.32C271.486 155.32 271.146 157.8 271.146 160.76C271.146 163.72 271.486 166.2 272.166 168.2C272.846 170.2 273.826 171.72 275.106 172.76C276.426 173.8 277.966 174.32 279.726 174.32Z" fill="#8B8B8B"/>
</svg>
