<svg width="792" height="680" viewBox="0 0 792 680" fill="none" xmlns="http://www.w3.org/2000/svg">
<rect width="792" height="680" rx="12" fill="#CCCCCC"/>
<path d="M159.68 385L188.48 310.84H206.84L179.12 385H159.68ZM148.4 316.24V300.28H206.84V310.84L200.6 316.24H148.4ZM220.955 385L247.595 347.92L254.555 347.44C253.515 349.28 252.355 350.92 251.075 352.36C249.875 353.72 248.315 354.8 246.395 355.6C244.555 356.32 242.075 356.68 238.955 356.68C233.835 356.68 229.115 355.48 224.795 353.08C220.555 350.6 217.155 347.28 214.595 343.12C212.115 338.88 210.875 334.08 210.875 328.72C210.875 323.12 212.275 318.08 215.075 313.6C217.875 309.12 221.635 305.56 226.355 302.92C231.075 300.28 236.395 298.96 242.315 298.96C248.235 298.96 253.555 300.28 258.275 302.92C262.995 305.48 266.715 309 269.435 313.48C272.235 317.88 273.635 322.88 273.635 328.48C273.635 335.68 271.155 342.92 266.195 350.2L242.315 385H220.955ZM242.315 342.64C244.795 342.64 247.035 342.04 249.035 340.84C251.035 339.64 252.595 338.04 253.715 336.04C254.835 333.96 255.395 331.64 255.395 329.08C255.395 326.44 254.835 324.08 253.715 322C252.595 319.92 251.035 318.32 249.035 317.2C247.035 316 244.795 315.4 242.315 315.4C239.755 315.4 237.475 316 235.475 317.2C233.555 318.32 231.995 319.92 230.795 322C229.675 324.08 229.115 326.44 229.115 329.08C229.115 331.64 229.675 333.96 230.795 336.04C231.995 338.04 233.595 339.64 235.595 340.84C237.595 342.04 239.835 342.64 242.315 342.64ZM279.075 374.44L311.595 340.84C313.595 338.84 315.195 337 316.395 335.32C317.595 333.64 318.475 332.08 319.035 330.64C319.595 329.12 319.875 327.6 319.875 326.08C319.875 322.8 318.795 320.24 316.635 318.4C314.555 316.48 311.795 315.52 308.355 315.52C304.995 315.52 301.955 316.44 299.235 318.28C296.595 320.04 294.035 322.96 291.555 327.04L278.955 316.12C282.315 310.44 286.595 306.16 291.795 303.28C296.995 300.4 302.955 298.96 309.675 298.96C315.515 298.96 320.555 300.04 324.795 302.2C329.115 304.36 332.435 307.44 334.755 311.44C337.155 315.44 338.355 320.12 338.355 325.48C338.355 328.84 337.915 331.96 337.035 334.84C336.155 337.64 334.715 340.44 332.715 343.24C330.795 345.96 328.195 348.96 324.915 352.24L302.355 374.68L279.075 374.44ZM279.075 385V374.44L295.035 368.92H340.035V385H279.075ZM405.85 385L382.21 347.2H379.93L347.29 300.28H369.73L393.01 335.8H395.29L427.93 385H405.85ZM345.73 385L377.05 339.64L391.57 347.8L367.21 385H345.73ZM396.01 345.04L381.49 336.88L405.01 300.28H426.49L396.01 345.04ZM464.151 386.32C458.231 386.32 452.871 385 448.071 382.36C443.351 379.72 439.591 376.2 436.791 371.8C434.071 367.32 432.711 362.32 432.711 356.8C432.711 349.6 435.231 342.32 440.271 334.96L464.151 300.28H485.391L458.871 337.24L451.791 337.84C452.911 335.92 454.071 334.28 455.271 332.92C456.551 331.48 458.151 330.4 460.071 329.68C461.991 328.88 464.431 328.48 467.391 328.48C472.671 328.48 477.391 329.72 481.551 332.2C485.791 334.6 489.191 337.92 491.751 342.16C494.311 346.32 495.591 351.12 495.591 356.56C495.591 362.08 494.191 367.12 491.391 371.68C488.591 376.16 484.831 379.72 480.111 382.36C475.391 385 470.071 386.32 464.151 386.32ZM464.151 369.88C466.631 369.88 468.871 369.28 470.871 368.08C472.871 366.88 474.431 365.24 475.551 363.16C476.671 361.08 477.231 358.76 477.231 356.2C477.231 353.56 476.671 351.24 475.551 349.24C474.431 347.16 472.871 345.56 470.871 344.44C468.871 343.24 466.631 342.64 464.151 342.64C461.591 342.64 459.311 343.24 457.311 344.44C455.391 345.56 453.871 347.16 452.751 349.24C451.631 351.24 451.071 353.56 451.071 356.2C451.071 358.76 451.631 361.08 452.751 363.16C453.871 365.24 455.391 366.88 457.311 368.08C459.311 369.28 461.591 369.88 464.151 369.88ZM532.22 386.32C526.14 386.32 520.82 385.24 516.26 383.08C511.78 380.92 508.26 377.96 505.7 374.2C503.22 370.44 501.98 366.16 501.98 361.36C501.98 357.36 502.74 353.76 504.26 350.56C505.86 347.36 508.06 344.68 510.86 342.52C513.74 340.36 517.06 338.88 520.82 338.08L520.46 341.92C517.26 341.2 514.54 339.88 512.3 337.96C510.06 335.96 508.34 333.56 507.14 330.76C505.94 327.96 505.34 325.04 505.34 322C505.34 317.52 506.46 313.56 508.7 310.12C511.02 306.6 514.22 303.84 518.3 301.84C522.38 299.84 527.02 298.84 532.22 298.84C537.5 298.84 542.14 299.84 546.14 301.84C550.22 303.84 553.38 306.6 555.62 310.12C557.94 313.56 559.1 317.52 559.1 322C559.1 325.04 558.5 327.96 557.3 330.76C556.18 333.56 554.5 335.96 552.26 337.96C550.02 339.88 547.3 341.2 544.1 341.92L543.62 338.08C547.46 338.88 550.78 340.36 553.58 342.52C556.46 344.68 558.66 347.36 560.18 350.56C561.7 353.76 562.46 357.36 562.46 361.36C562.46 366.16 561.22 370.44 558.74 374.2C556.26 377.96 552.74 380.92 548.18 383.08C543.7 385.24 538.38 386.32 532.22 386.32ZM532.22 370.24C534.62 370.24 536.74 369.76 538.58 368.8C540.42 367.76 541.86 366.36 542.9 364.6C544.02 362.84 544.58 360.88 544.58 358.72C544.58 356.48 544.02 354.52 542.9 352.84C541.86 351.08 540.42 349.72 538.58 348.76C536.74 347.72 534.62 347.2 532.22 347.2C529.82 347.2 527.7 347.72 525.86 348.76C524.02 349.72 522.58 351.08 521.54 352.84C520.5 354.52 519.98 356.48 519.98 358.72C519.98 360.88 520.5 362.84 521.54 364.6C522.58 366.36 524.02 367.76 525.86 368.8C527.7 369.76 529.82 370.24 532.22 370.24ZM532.22 333.52C535.02 333.52 537.3 332.64 539.06 330.88C540.9 329.04 541.82 326.76 541.82 324.04C541.82 321.24 540.9 318.96 539.06 317.2C537.3 315.36 535.02 314.44 532.22 314.44C529.5 314.44 527.22 315.32 525.38 317.08C523.54 318.84 522.62 321.12 522.62 323.92C522.62 326.64 523.54 328.92 525.38 330.76C527.22 332.6 529.5 333.52 532.22 333.52ZM605.963 386.32C599.163 386.32 593.003 384.48 587.483 380.8C581.963 377.12 577.603 372 574.403 365.44C571.283 358.8 569.723 351.16 569.723 342.52C569.723 333.8 571.283 326.2 574.403 319.72C577.523 313.16 581.803 308.08 587.243 304.48C592.683 300.8 598.843 298.96 605.723 298.96C612.683 298.96 618.883 300.8 624.323 304.48C629.763 308.08 634.043 313.16 637.163 319.72C640.363 326.28 641.963 333.92 641.963 342.64C641.963 351.36 640.363 359 637.163 365.56C634.043 372.12 629.763 377.24 624.323 380.92C618.963 384.52 612.843 386.32 605.963 386.32ZM605.843 369.64C609.363 369.64 612.403 368.64 614.963 366.64C617.523 364.56 619.483 361.52 620.843 357.52C622.283 353.44 623.003 348.48 623.003 342.64C623.003 336.72 622.283 331.76 620.843 327.76C619.483 323.76 617.523 320.76 614.963 318.76C612.403 316.68 609.323 315.64 605.723 315.64C602.283 315.64 599.243 316.64 596.603 318.64C594.043 320.64 592.083 323.64 590.723 327.64C589.363 331.64 588.683 336.6 588.683 342.52C588.683 348.44 589.363 353.4 590.723 357.4C592.083 361.4 594.043 364.44 596.603 366.52C599.243 368.6 602.323 369.64 605.843 369.64Z" fill="#8B8B8B"/>
</svg>
