<svg width="238" height="100" viewBox="0 0 238 100" fill="none" xmlns="http://www.w3.org/2000/svg">
<rect width="238" height="100" rx="12" fill="#CCCCCC"/>
<path d="M57.72 58.36L65.85 49.96C66.35 49.46 66.75 49 67.05 48.58C67.35 48.16 67.57 47.77 67.71 47.41C67.85 47.03 67.92 46.65 67.92 46.27C67.92 45.45 67.65 44.81 67.11 44.35C66.59 43.87 65.9 43.63 65.04 43.63C64.2 43.63 63.44 43.86 62.76 44.32C62.1 44.76 61.46 45.49 60.84 46.51L57.69 43.78C58.53 42.36 59.6 41.29 60.9 40.57C62.2 39.85 63.69 39.49 65.37 39.49C66.83 39.49 68.09 39.76 69.15 40.3C70.23 40.84 71.06 41.61 71.64 42.61C72.24 43.61 72.54 44.78 72.54 46.12C72.54 46.96 72.43 47.74 72.21 48.46C71.99 49.16 71.63 49.86 71.13 50.56C70.65 51.24 70 51.99 69.18 52.81L63.54 58.42L57.72 58.36ZM57.72 61V58.36L61.71 56.98H72.96V61H57.72ZM81.5236 61.33C80.0636 61.33 78.7236 61.08 77.5036 60.58C76.2836 60.06 75.2536 59.32 74.4136 58.36L77.4436 55.33C77.8236 55.89 78.3736 56.35 79.0936 56.71C79.8336 57.05 80.6136 57.22 81.4336 57.22C82.1736 57.22 82.8136 57.09 83.3536 56.83C83.8936 56.57 84.3136 56.2 84.6136 55.72C84.9336 55.24 85.0936 54.67 85.0936 54.01C85.0936 53.35 84.9336 52.79 84.6136 52.33C84.3136 51.85 83.8636 51.48 83.2636 51.22C82.6836 50.96 81.9836 50.83 81.1636 50.83C80.7836 50.83 80.3836 50.86 79.9636 50.92C79.5636 50.96 79.2236 51.03 78.9436 51.13L81.0136 48.52C81.5736 48.36 82.1036 48.23 82.6036 48.13C83.1236 48.01 83.6036 47.95 84.0436 47.95C85.1236 47.95 86.0936 48.21 86.9536 48.73C87.8136 49.23 88.4936 49.95 88.9936 50.89C89.5136 51.81 89.7736 52.91 89.7736 54.19C89.7736 55.59 89.4236 56.83 88.7236 57.91C88.0436 58.99 87.0836 59.83 85.8436 60.43C84.6236 61.03 83.1836 61.33 81.5236 61.33ZM78.9436 51.13V48.52L84.1036 42.46L89.3836 42.43L84.0136 48.55L78.9436 51.13ZM75.7336 43.81V39.82H89.3836V42.43L85.6936 43.81H75.7336ZM99.1214 61.33C97.6014 61.33 96.2714 61.06 95.1314 60.52C94.0114 59.98 93.1314 59.24 92.4914 58.3C91.8714 57.36 91.5614 56.29 91.5614 55.09C91.5614 54.09 91.7514 53.19 92.1314 52.39C92.5314 51.59 93.0814 50.92 93.7814 50.38C94.5014 49.84 95.3314 49.47 96.2714 49.27L96.1814 50.23C95.3814 50.05 94.7014 49.72 94.1414 49.24C93.5814 48.74 93.1514 48.14 92.8514 47.44C92.5514 46.74 92.4014 46.01 92.4014 45.25C92.4014 44.13 92.6814 43.14 93.2414 42.28C93.8214 41.4 94.6214 40.71 95.6414 40.21C96.6614 39.71 97.8214 39.46 99.1214 39.46C100.441 39.46 101.601 39.71 102.601 40.21C103.621 40.71 104.411 41.4 104.971 42.28C105.551 43.14 105.841 44.13 105.841 45.25C105.841 46.01 105.691 46.74 105.391 47.44C105.111 48.14 104.691 48.74 104.131 49.24C103.571 49.72 102.891 50.05 102.091 50.23L101.971 49.27C102.931 49.47 103.761 49.84 104.461 50.38C105.181 50.92 105.731 51.59 106.111 52.39C106.491 53.19 106.681 54.09 106.681 55.09C106.681 56.29 106.371 57.36 105.751 58.3C105.131 59.24 104.251 59.98 103.111 60.52C101.991 61.06 100.661 61.33 99.1214 61.33ZM99.1214 57.31C99.7214 57.31 100.251 57.19 100.711 56.95C101.171 56.69 101.531 56.34 101.791 55.9C102.071 55.46 102.211 54.97 102.211 54.43C102.211 53.87 102.071 53.38 101.791 52.96C101.531 52.52 101.171 52.18 100.711 51.94C100.251 51.68 99.7214 51.55 99.1214 51.55C98.5214 51.55 97.9914 51.68 97.5314 51.94C97.0714 52.18 96.7114 52.52 96.4514 52.96C96.1914 53.38 96.0614 53.87 96.0614 54.43C96.0614 54.97 96.1914 55.46 96.4514 55.9C96.7114 56.34 97.0714 56.69 97.5314 56.95C97.9914 57.19 98.5214 57.31 99.1214 57.31ZM99.1214 48.13C99.8214 48.13 100.391 47.91 100.831 47.47C101.291 47.01 101.521 46.44 101.521 45.76C101.521 45.06 101.291 44.49 100.831 44.05C100.391 43.59 99.8214 43.36 99.1214 43.36C98.4414 43.36 97.8714 43.58 97.4114 44.02C96.9514 44.46 96.7214 45.03 96.7214 45.73C96.7214 46.41 96.9514 46.98 97.4114 47.44C97.8714 47.9 98.4414 48.13 99.1214 48.13ZM123.017 61L117.107 51.55H116.537L108.377 39.82H113.987L119.807 48.7H120.377L128.537 61H123.017ZM107.987 61L115.817 49.66L119.447 51.7L113.357 61H107.987ZM120.557 51.01L116.927 48.97L122.807 39.82H128.177L120.557 51.01ZM133.662 61V39.82H138.342V61H133.662ZM129.582 43.81V39.82H138.042V43.81H129.582ZM150.34 61.33C148.64 61.33 147.1 60.87 145.72 59.95C144.34 59.03 143.25 57.75 142.45 56.11C141.67 54.45 141.28 52.54 141.28 50.38C141.28 48.2 141.67 46.3 142.45 44.68C143.23 43.04 144.3 41.77 145.66 40.87C147.02 39.95 148.56 39.49 150.28 39.49C152.02 39.49 153.57 39.95 154.93 40.87C156.29 41.77 157.36 43.04 158.14 44.68C158.94 46.32 159.34 48.23 159.34 50.41C159.34 52.59 158.94 54.5 158.14 56.14C157.36 57.78 156.29 59.06 154.93 59.98C153.59 60.88 152.06 61.33 150.34 61.33ZM150.31 57.16C151.19 57.16 151.95 56.91 152.59 56.41C153.23 55.89 153.72 55.13 154.06 54.13C154.42 53.11 154.6 51.87 154.6 50.41C154.6 48.93 154.42 47.69 154.06 46.69C153.72 45.69 153.23 44.94 152.59 44.44C151.95 43.92 151.18 43.66 150.28 43.66C149.42 43.66 148.66 43.91 148 44.41C147.36 44.91 146.87 45.66 146.53 46.66C146.19 47.66 146.02 48.9 146.02 50.38C146.02 51.86 146.19 53.1 146.53 54.1C146.87 55.1 147.36 55.86 148 56.38C148.66 56.9 149.43 57.16 150.31 57.16ZM170.321 61.33C168.621 61.33 167.081 60.87 165.701 59.95C164.321 59.03 163.231 57.75 162.431 56.11C161.651 54.45 161.261 52.54 161.261 50.38C161.261 48.2 161.651 46.3 162.431 44.68C163.211 43.04 164.281 41.77 165.641 40.87C167.001 39.95 168.541 39.49 170.261 39.49C172.001 39.49 173.551 39.95 174.911 40.87C176.271 41.77 177.341 43.04 178.121 44.68C178.921 46.32 179.321 48.23 179.321 50.41C179.321 52.59 178.921 54.5 178.121 56.14C177.341 57.78 176.271 59.06 174.911 59.98C173.571 60.88 172.041 61.33 170.321 61.33ZM170.291 57.16C171.171 57.16 171.931 56.91 172.571 56.41C173.211 55.89 173.701 55.13 174.041 54.13C174.401 53.11 174.581 51.87 174.581 50.41C174.581 48.93 174.401 47.69 174.041 46.69C173.701 45.69 173.211 44.94 172.571 44.44C171.931 43.92 171.161 43.66 170.261 43.66C169.401 43.66 168.641 43.91 167.981 44.41C167.341 44.91 166.851 45.66 166.511 46.66C166.171 47.66 166.001 48.9 166.001 50.38C166.001 51.86 166.171 53.1 166.511 54.1C166.851 55.1 167.341 55.86 167.981 56.38C168.641 56.9 169.411 57.16 170.291 57.16Z" fill="#8B8B8B"/>
</svg>
