<svg width="378" height="320" viewBox="0 0 378 320" fill="none" xmlns="http://www.w3.org/2000/svg">
<rect width="378" height="320" rx="16" fill="#CCCCCC"/>
<path d="M80.18 182.66C77.26 182.66 74.58 182.16 72.14 181.16C69.7 180.12 67.64 178.64 65.96 176.72L72.02 170.66C72.78 171.78 73.88 172.7 75.32 173.42C76.8 174.1 78.36 174.44 80 174.44C81.48 174.44 82.76 174.18 83.84 173.66C84.92 173.14 85.76 172.4 86.36 171.44C87 170.48 87.32 169.34 87.32 168.02C87.32 166.7 87 165.58 86.36 164.66C85.76 163.7 84.86 162.96 83.66 162.44C82.5 161.92 81.1 161.66 79.46 161.66C78.7 161.66 77.9 161.72 77.06 161.84C76.26 161.92 75.58 162.06 75.02 162.26L79.16 157.04C80.28 156.72 81.34 156.46 82.34 156.26C83.38 156.02 84.34 155.9 85.22 155.9C87.38 155.9 89.32 156.42 91.04 157.46C92.76 158.46 94.12 159.9 95.12 161.78C96.16 163.62 96.68 165.82 96.68 168.38C96.68 171.18 95.98 173.66 94.58 175.82C93.22 177.98 91.3 179.66 88.82 180.86C86.38 182.06 83.5 182.66 80.18 182.66ZM75.02 162.26V157.04L85.34 144.92L95.9 144.86L85.16 157.1L75.02 162.26ZM68.6 147.62V139.64H95.9V144.86L88.52 147.62H68.6ZM104.418 182L118.818 144.92H127.998L114.138 182H104.418ZM98.7781 147.62V139.64H127.998V144.92L124.878 147.62H98.7781ZM145.317 182.66C142.277 182.66 139.617 182.12 137.337 181.04C135.097 179.96 133.337 178.48 132.057 176.6C130.817 174.72 130.197 172.58 130.197 170.18C130.197 168.18 130.577 166.38 131.337 164.78C132.137 163.18 133.237 161.84 134.637 160.76C136.077 159.68 137.737 158.94 139.617 158.54L139.437 160.46C137.837 160.1 136.477 159.44 135.357 158.48C134.237 157.48 133.377 156.28 132.777 154.88C132.177 153.48 131.877 152.02 131.877 150.5C131.877 148.26 132.437 146.28 133.557 144.56C134.717 142.8 136.317 141.42 138.357 140.42C140.397 139.42 142.717 138.92 145.317 138.92C147.957 138.92 150.277 139.42 152.277 140.42C154.317 141.42 155.897 142.8 157.017 144.56C158.177 146.28 158.757 148.26 158.757 150.5C158.757 152.02 158.457 153.48 157.857 154.88C157.297 156.28 156.457 157.48 155.337 158.48C154.217 159.44 152.857 160.1 151.257 160.46L151.017 158.54C152.937 158.94 154.597 159.68 155.997 160.76C157.437 161.84 158.537 163.18 159.297 164.78C160.057 166.38 160.437 168.18 160.437 170.18C160.437 172.58 159.817 174.72 158.577 176.6C157.337 178.48 155.577 179.96 153.297 181.04C151.057 182.12 148.397 182.66 145.317 182.66ZM145.317 174.62C146.517 174.62 147.577 174.38 148.497 173.9C149.417 173.38 150.137 172.68 150.657 171.8C151.217 170.92 151.497 169.94 151.497 168.86C151.497 167.74 151.217 166.76 150.657 165.92C150.137 165.04 149.417 164.36 148.497 163.88C147.577 163.36 146.517 163.1 145.317 163.1C144.117 163.1 143.057 163.36 142.137 163.88C141.217 164.36 140.497 165.04 139.977 165.92C139.457 166.76 139.197 167.74 139.197 168.86C139.197 169.94 139.457 170.92 139.977 171.8C140.497 172.68 141.217 173.38 142.137 173.9C143.057 174.38 144.117 174.62 145.317 174.62ZM145.317 156.26C146.717 156.26 147.857 155.82 148.737 154.94C149.657 154.02 150.117 152.88 150.117 151.52C150.117 150.12 149.657 148.98 148.737 148.1C147.857 147.18 146.717 146.72 145.317 146.72C143.957 146.72 142.817 147.16 141.897 148.04C140.977 148.92 140.517 150.06 140.517 151.46C140.517 152.82 140.977 153.96 141.897 154.88C142.817 155.8 143.957 156.26 145.317 156.26ZM193.108 182L181.288 163.1H180.148L163.828 139.64H175.048L186.688 157.4H187.828L204.148 182H193.108ZM163.048 182L178.708 159.32L185.968 163.4L173.788 182H163.048ZM188.188 162.02L180.928 157.94L192.688 139.64H203.428L188.188 162.02ZM220.219 182.66C217.299 182.66 214.619 182.16 212.179 181.16C209.739 180.12 207.679 178.64 205.999 176.72L212.059 170.66C212.819 171.78 213.919 172.7 215.359 173.42C216.839 174.1 218.399 174.44 220.039 174.44C221.519 174.44 222.799 174.18 223.879 173.66C224.959 173.14 225.799 172.4 226.399 171.44C227.039 170.48 227.359 169.34 227.359 168.02C227.359 166.7 227.039 165.58 226.399 164.66C225.799 163.7 224.899 162.96 223.699 162.44C222.539 161.92 221.139 161.66 219.499 161.66C218.739 161.66 217.939 161.72 217.099 161.84C216.299 161.92 215.619 162.06 215.059 162.26L219.199 157.04C220.319 156.72 221.379 156.46 222.379 156.26C223.419 156.02 224.379 155.9 225.259 155.9C227.419 155.9 229.359 156.42 231.079 157.46C232.799 158.46 234.159 159.9 235.159 161.78C236.199 163.62 236.719 165.82 236.719 168.38C236.719 171.18 236.019 173.66 234.619 175.82C233.259 177.98 231.339 179.66 228.859 180.86C226.419 182.06 223.539 182.66 220.219 182.66ZM215.059 162.26V157.04L225.379 144.92L235.939 144.86L225.199 157.1L215.059 162.26ZM208.639 147.62V139.64H235.939V144.86L228.559 147.62H208.639ZM239.995 176.72L256.255 159.92C257.255 158.92 258.055 158 258.655 157.16C259.255 156.32 259.695 155.54 259.975 154.82C260.255 154.06 260.395 153.3 260.395 152.54C260.395 150.9 259.855 149.62 258.775 148.7C257.735 147.74 256.355 147.26 254.635 147.26C252.955 147.26 251.435 147.72 250.075 148.64C248.755 149.52 247.475 150.98 246.235 153.02L239.935 147.56C241.615 144.72 243.755 142.58 246.355 141.14C248.955 139.7 251.935 138.98 255.295 138.98C258.215 138.98 260.735 139.52 262.855 140.6C265.015 141.68 266.675 143.22 267.835 145.22C269.035 147.22 269.635 149.56 269.635 152.24C269.635 153.92 269.415 155.48 268.975 156.92C268.535 158.32 267.815 159.72 266.815 161.12C265.855 162.48 264.555 163.98 262.915 165.62L251.635 176.84L239.995 176.72ZM239.995 182V176.72L247.975 173.96H270.475V182H239.995ZM292.462 182.66C289.062 182.66 285.982 181.74 283.222 179.9C280.462 178.06 278.282 175.5 276.682 172.22C275.122 168.9 274.342 165.08 274.342 160.76C274.342 156.4 275.122 152.6 276.682 149.36C278.242 146.08 280.382 143.54 283.102 141.74C285.822 139.9 288.902 138.98 292.342 138.98C295.822 138.98 298.922 139.9 301.642 141.74C304.362 143.54 306.502 146.08 308.062 149.36C309.662 152.64 310.462 156.46 310.462 160.82C310.462 165.18 309.662 169 308.062 172.28C306.502 175.56 304.362 178.12 301.642 179.96C298.962 181.76 295.902 182.66 292.462 182.66ZM292.402 174.32C294.162 174.32 295.682 173.82 296.962 172.82C298.242 171.78 299.222 170.26 299.902 168.26C300.622 166.22 300.982 163.74 300.982 160.82C300.982 157.86 300.622 155.38 299.902 153.38C299.222 151.38 298.242 149.88 296.962 148.88C295.682 147.84 294.142 147.32 292.342 147.32C290.622 147.32 289.102 147.82 287.782 148.82C286.502 149.82 285.522 151.32 284.842 153.32C284.162 155.32 283.822 157.8 283.822 160.76C283.822 163.72 284.162 166.2 284.842 168.2C285.522 170.2 286.502 171.72 287.782 172.76C289.102 173.8 290.642 174.32 292.402 174.32Z" fill="#8B8B8B"/>
</svg>
