<svg width="100" height="100" viewBox="0 0 100 100" fill="none" xmlns="http://www.w3.org/2000/svg">
<circle cx="50" cy="50" r="50" fill="#CCCCCC"/>
<path d="M12.12 58V43.88H15.24V58H12.12ZM9.4 46.54V43.88H15.04V46.54H9.4ZM23.2386 58.22C22.1053 58.22 21.0786 57.9133 20.1586 57.3C19.2386 56.6867 18.5119 55.8333 17.9786 54.74C17.4586 53.6333 17.1986 52.36 17.1986 50.92C17.1986 49.4667 17.4586 48.2 17.9786 47.12C18.4986 46.0267 19.2119 45.18 20.1186 44.58C21.0253 43.9667 22.0519 43.66 23.1986 43.66C24.3586 43.66 25.3919 43.9667 26.2986 44.58C27.2053 45.18 27.9186 46.0267 28.4386 47.12C28.9719 48.2133 29.2386 49.4867 29.2386 50.94C29.2386 52.3933 28.9719 53.6667 28.4386 54.76C27.9186 55.8533 27.2053 56.7067 26.2986 57.32C25.4053 57.92 24.3853 58.22 23.2386 58.22ZM23.2186 55.44C23.8053 55.44 24.3119 55.2733 24.7386 54.94C25.1653 54.5933 25.4919 54.0867 25.7186 53.42C25.9586 52.74 26.0786 51.9133 26.0786 50.94C26.0786 49.9533 25.9586 49.1267 25.7186 48.46C25.4919 47.7933 25.1653 47.2933 24.7386 46.96C24.3119 46.6133 23.7986 46.44 23.1986 46.44C22.6253 46.44 22.1186 46.6067 21.6786 46.94C21.2519 47.2733 20.9253 47.7733 20.6986 48.44C20.4719 49.1067 20.3586 49.9333 20.3586 50.92C20.3586 51.9067 20.4719 52.7333 20.6986 53.4C20.9253 54.0667 21.2519 54.5733 21.6786 54.92C22.1186 55.2667 22.6319 55.44 23.2186 55.44ZM36.5589 58.22C35.4256 58.22 34.3989 57.9133 33.4789 57.3C32.5589 56.6867 31.8322 55.8333 31.2989 54.74C30.7789 53.6333 30.5189 52.36 30.5189 50.92C30.5189 49.4667 30.7789 48.2 31.2989 47.12C31.8189 46.0267 32.5322 45.18 33.4389 44.58C34.3456 43.9667 35.3722 43.66 36.5189 43.66C37.6789 43.66 38.7122 43.9667 39.6189 44.58C40.5256 45.18 41.2389 46.0267 41.7589 47.12C42.2922 48.2133 42.5589 49.4867 42.5589 50.94C42.5589 52.3933 42.2922 53.6667 41.7589 54.76C41.2389 55.8533 40.5256 56.7067 39.6189 57.32C38.7256 57.92 37.7056 58.22 36.5589 58.22ZM36.5389 55.44C37.1256 55.44 37.6322 55.2733 38.0589 54.94C38.4856 54.5933 38.8122 54.0867 39.0389 53.42C39.2789 52.74 39.3989 51.9133 39.3989 50.94C39.3989 49.9533 39.2789 49.1267 39.0389 48.46C38.8122 47.7933 38.4856 47.2933 38.0589 46.96C37.6322 46.6133 37.1189 46.44 36.5189 46.44C35.9456 46.44 35.4389 46.6067 34.9989 46.94C34.5722 47.2733 34.2456 47.7733 34.0189 48.44C33.7922 49.1067 33.6789 49.9333 33.6789 50.92C33.6789 51.9067 33.7922 52.7333 34.0189 53.4C34.2456 54.0667 34.5722 54.5733 34.9989 54.92C35.4389 55.2667 35.9522 55.44 36.5389 55.44ZM53.5192 58L49.5792 51.7H49.1992L43.7592 43.88H47.4992L51.3792 49.8H51.7592L57.1992 58H53.5192ZM43.4992 58L48.7192 50.44L51.1392 51.8L47.0792 58H43.4992ZM51.8792 51.34L49.4592 49.98L53.3792 43.88H56.9592L51.8792 51.34ZM60.6161 58V43.88H63.7361V58H60.6161ZM57.8961 46.54V43.88H63.5361V46.54H57.8961ZM71.7347 58.22C70.6014 58.22 69.5747 57.9133 68.6547 57.3C67.7347 56.6867 67.008 55.8333 66.4747 54.74C65.9547 53.6333 65.6947 52.36 65.6947 50.92C65.6947 49.4667 65.9547 48.2 66.4747 47.12C66.9947 46.0267 67.708 45.18 68.6147 44.58C69.5214 43.9667 70.548 43.66 71.6947 43.66C72.8547 43.66 73.888 43.9667 74.7947 44.58C75.7014 45.18 76.4147 46.0267 76.9347 47.12C77.468 48.2133 77.7347 49.4867 77.7347 50.94C77.7347 52.3933 77.468 53.6667 76.9347 54.76C76.4147 55.8533 75.7014 56.7067 74.7947 57.32C73.9014 57.92 72.8814 58.22 71.7347 58.22ZM71.7147 55.44C72.3014 55.44 72.808 55.2733 73.2347 54.94C73.6614 54.5933 73.988 54.0867 74.2147 53.42C74.4547 52.74 74.5747 51.9133 74.5747 50.94C74.5747 49.9533 74.4547 49.1267 74.2147 48.46C73.988 47.7933 73.6614 47.2933 73.2347 46.96C72.808 46.6133 72.2947 46.44 71.6947 46.44C71.1214 46.44 70.6147 46.6067 70.1747 46.94C69.748 47.2733 69.4214 47.7733 69.1947 48.44C68.968 49.1067 68.8547 49.9333 68.8547 50.92C68.8547 51.9067 68.968 52.7333 69.1947 53.4C69.4214 54.0667 69.748 54.5733 70.1747 54.92C70.6147 55.2667 71.128 55.44 71.7147 55.44ZM85.055 58.22C83.9217 58.22 82.895 57.9133 81.975 57.3C81.055 56.6867 80.3283 55.8333 79.795 54.74C79.275 53.6333 79.015 52.36 79.015 50.92C79.015 49.4667 79.275 48.2 79.795 47.12C80.315 46.0267 81.0283 45.18 81.935 44.58C82.8417 43.9667 83.8683 43.66 85.015 43.66C86.175 43.66 87.2083 43.9667 88.115 44.58C89.0217 45.18 89.735 46.0267 90.255 47.12C90.7883 48.2133 91.055 49.4867 91.055 50.94C91.055 52.3933 90.7883 53.6667 90.255 54.76C89.735 55.8533 89.0217 56.7067 88.115 57.32C87.2217 57.92 86.2017 58.22 85.055 58.22ZM85.035 55.44C85.6217 55.44 86.1283 55.2733 86.555 54.94C86.9817 54.5933 87.3083 54.0867 87.535 53.42C87.775 52.74 87.895 51.9133 87.895 50.94C87.895 49.9533 87.775 49.1267 87.535 48.46C87.3083 47.7933 86.9817 47.2933 86.555 46.96C86.1283 46.6133 85.615 46.44 85.015 46.44C84.4417 46.44 83.935 46.6067 83.495 46.94C83.0683 47.2733 82.7417 47.7733 82.515 48.44C82.2883 49.1067 82.175 49.9333 82.175 50.92C82.175 51.9067 82.2883 52.7333 82.515 53.4C82.7417 54.0667 83.0683 54.5733 83.495 54.92C83.935 55.2667 84.4483 55.44 85.035 55.44Z" fill="#8B8B8B"/>
</svg>
