<svg width="250" height="345" viewBox="0 0 250 345" fill="none" xmlns="http://www.w3.org/2000/svg">
<rect width="250" height="345" rx="16" fill="#CCCCCC"/>
<path d="M42.96 184.48L53.8 173.28C54.4667 172.613 55 172 55.4 171.44C55.8 170.88 56.0933 170.36 56.28 169.88C56.4667 169.373 56.56 168.867 56.56 168.36C56.56 167.267 56.2 166.413 55.48 165.8C54.7867 165.16 53.8667 164.84 52.72 164.84C51.6 164.84 50.5867 165.147 49.68 165.76C48.8 166.347 47.9467 167.32 47.12 168.68L42.92 165.04C44.04 163.147 45.4667 161.72 47.2 160.76C48.9333 159.8 50.92 159.32 53.16 159.32C55.1067 159.32 56.7867 159.68 58.2 160.4C59.64 161.12 60.7467 162.147 61.52 163.48C62.32 164.813 62.72 166.373 62.72 168.16C62.72 169.28 62.5733 170.32 62.28 171.28C61.9867 172.213 61.5067 173.147 60.84 174.08C60.2 174.987 59.3333 175.987 58.24 177.08L50.72 184.56L42.96 184.48ZM42.96 188V184.48L48.28 182.64H63.28V188H42.96ZM74.7381 188.44C72.7915 188.44 70.9648 188.107 69.2581 187.44C67.5781 186.747 66.1781 185.76 65.0581 184.48L69.1381 180.44C69.6448 181.187 70.3781 181.8 71.3381 182.28C72.3248 182.733 73.3915 182.96 74.5381 182.96C75.5515 182.96 76.4315 182.787 77.1781 182.44C77.9248 182.067 78.5115 181.547 78.9381 180.88C79.3648 180.187 79.5781 179.387 79.5781 178.48C79.5781 177.547 79.3648 176.747 78.9381 176.08C78.5115 175.413 77.9115 174.907 77.1381 174.56C76.3915 174.187 75.5381 174 74.5781 174C73.6181 174 72.7381 174.133 71.9381 174.4C71.1381 174.64 70.4048 175.013 69.7381 175.52L70.2581 171.52C70.8715 171.04 71.4581 170.653 72.0181 170.36C72.5781 170.04 73.1915 169.8 73.8581 169.64C74.5248 169.48 75.3115 169.4 76.2181 169.4C78.2981 169.4 80.0448 169.827 81.4581 170.68C82.8981 171.533 83.9781 172.667 84.6981 174.08C85.4448 175.493 85.8181 177.053 85.8181 178.76C85.8181 180.627 85.3515 182.293 84.4181 183.76C83.5115 185.227 82.2315 186.373 80.5781 187.2C78.9248 188.027 76.9781 188.44 74.7381 188.44ZM69.7381 175.52L67.0181 173L68.3781 159.76H74.0581L72.5781 172.88L69.7381 175.52ZM69.2181 165.08L68.3781 159.76H84.2581V165.08H69.2181ZM100.321 188.44C98.0543 188.44 96.0009 187.827 94.1609 186.6C92.3209 185.373 90.8676 183.667 89.8009 181.48C88.7609 179.267 88.2409 176.72 88.2409 173.84C88.2409 170.933 88.7609 168.4 89.8009 166.24C90.8409 164.053 92.2676 162.36 94.0809 161.16C95.8943 159.933 97.9476 159.32 100.241 159.32C102.561 159.32 104.628 159.933 106.441 161.16C108.254 162.36 109.681 164.053 110.721 166.24C111.788 168.427 112.321 170.973 112.321 173.88C112.321 176.787 111.788 179.333 110.721 181.52C109.681 183.707 108.254 185.413 106.441 186.64C104.654 187.84 102.614 188.44 100.321 188.44ZM100.281 182.88C101.454 182.88 102.468 182.547 103.321 181.88C104.174 181.187 104.828 180.173 105.281 178.84C105.761 177.48 106.001 175.827 106.001 173.88C106.001 171.907 105.761 170.253 105.281 168.92C104.828 167.587 104.174 166.587 103.321 165.92C102.468 165.227 101.441 164.88 100.241 164.88C99.0943 164.88 98.0809 165.213 97.2009 165.88C96.3476 166.547 95.6943 167.547 95.2409 168.88C94.7876 170.213 94.5609 171.867 94.5609 173.84C94.5609 175.813 94.7876 177.467 95.2409 178.8C95.6943 180.133 96.3476 181.147 97.2009 181.84C98.0809 182.533 99.1076 182.88 100.281 182.88ZM134.242 188L126.362 175.4H125.602L114.722 159.76H122.202L129.962 171.6H130.722L141.602 188H134.242ZM114.202 188L124.642 172.88L129.482 175.6L121.362 188H114.202ZM130.962 174.68L126.122 171.96L133.962 159.76H141.122L130.962 174.68ZM152.315 188.44C150.369 188.44 148.582 188.107 146.955 187.44C145.329 186.747 143.955 185.76 142.835 184.48L146.875 180.44C147.382 181.187 148.115 181.8 149.075 182.28C150.062 182.733 151.102 182.96 152.195 182.96C153.182 182.96 154.035 182.787 154.755 182.44C155.475 182.093 156.035 181.6 156.435 180.96C156.862 180.32 157.075 179.56 157.075 178.68C157.075 177.8 156.862 177.053 156.435 176.44C156.035 175.8 155.435 175.307 154.635 174.96C153.862 174.613 152.929 174.44 151.835 174.44C151.329 174.44 150.795 174.48 150.235 174.56C149.702 174.613 149.249 174.707 148.875 174.84L151.635 171.36C152.382 171.147 153.089 170.973 153.755 170.84C154.449 170.68 155.089 170.6 155.675 170.6C157.115 170.6 158.409 170.947 159.555 171.64C160.702 172.307 161.609 173.267 162.275 174.52C162.969 175.747 163.315 177.213 163.315 178.92C163.315 180.787 162.849 182.44 161.915 183.88C161.009 185.32 159.729 186.44 158.075 187.24C156.449 188.04 154.529 188.44 152.315 188.44ZM148.875 174.84V171.36L155.755 163.28L162.795 163.24L155.635 171.4L148.875 174.84ZM144.595 165.08V159.76H162.795V163.24L157.875 165.08H144.595ZM165.379 178.2L174.659 159.76H181.499L172.019 178.2H165.379ZM165.379 181.72V178.2L167.459 176.4H188.019V181.72H165.379ZM178.699 188V170.52H184.859V188H178.699ZM198.644 188.44C196.698 188.44 194.871 188.107 193.164 187.44C191.484 186.747 190.084 185.76 188.964 184.48L193.044 180.44C193.551 181.187 194.284 181.8 195.244 182.28C196.231 182.733 197.298 182.96 198.444 182.96C199.458 182.96 200.338 182.787 201.084 182.44C201.831 182.067 202.418 181.547 202.844 180.88C203.271 180.187 203.484 179.387 203.484 178.48C203.484 177.547 203.271 176.747 202.844 176.08C202.418 175.413 201.818 174.907 201.044 174.56C200.298 174.187 199.444 174 198.484 174C197.524 174 196.644 174.133 195.844 174.4C195.044 174.64 194.311 175.013 193.644 175.52L194.164 171.52C194.778 171.04 195.364 170.653 195.924 170.36C196.484 170.04 197.098 169.8 197.764 169.64C198.431 169.48 199.218 169.4 200.124 169.4C202.204 169.4 203.951 169.827 205.364 170.68C206.804 171.533 207.884 172.667 208.604 174.08C209.351 175.493 209.724 177.053 209.724 178.76C209.724 180.627 209.258 182.293 208.324 183.76C207.418 185.227 206.138 186.373 204.484 187.2C202.831 188.027 200.884 188.44 198.644 188.44ZM193.644 175.52L190.924 173L192.284 159.76H197.964L196.484 172.88L193.644 175.52ZM193.124 165.08L192.284 159.76H208.164V165.08H193.124Z" fill="#8B8B8B"/>
</svg>
