<svg width="1024" height="591" viewBox="0 0 1024 591" fill="none" xmlns="http://www.w3.org/2000/svg">
<rect width="1024" height="591" rx="24" fill="#CCCCCC"/>
<path d="M264.72 340V255.28H283.44V340H264.72ZM248.4 271.24V255.28H282.24V271.24H248.4ZM331.432 341.32C324.632 341.32 318.472 339.48 312.952 335.8C307.432 332.12 303.072 327 299.872 320.44C296.752 313.8 295.192 306.16 295.192 297.52C295.192 288.8 296.752 281.2 299.872 274.72C302.992 268.16 307.272 263.08 312.712 259.48C318.152 255.8 324.312 253.96 331.192 253.96C338.152 253.96 344.352 255.8 349.792 259.48C355.232 263.08 359.512 268.16 362.632 274.72C365.832 281.28 367.432 288.92 367.432 297.64C367.432 306.36 365.832 314 362.632 320.56C359.512 327.12 355.232 332.24 349.792 335.92C344.432 339.52 338.312 341.32 331.432 341.32ZM331.312 324.64C334.832 324.64 337.872 323.64 340.432 321.64C342.992 319.56 344.952 316.52 346.312 312.52C347.752 308.44 348.472 303.48 348.472 297.64C348.472 291.72 347.752 286.76 346.312 282.76C344.952 278.76 342.992 275.76 340.432 273.76C337.872 271.68 334.792 270.64 331.192 270.64C327.752 270.64 324.712 271.64 322.072 273.64C319.512 275.64 317.552 278.64 316.192 282.64C314.832 286.64 314.152 291.6 314.152 297.52C314.152 303.44 314.832 308.4 316.192 312.4C317.552 316.4 319.512 319.44 322.072 321.52C324.712 323.6 327.792 324.64 331.312 324.64ZM374.153 329.44L406.673 295.84C408.673 293.84 410.273 292 411.473 290.32C412.673 288.64 413.553 287.08 414.113 285.64C414.673 284.12 414.953 282.6 414.953 281.08C414.953 277.8 413.873 275.24 411.713 273.4C409.633 271.48 406.873 270.52 403.433 270.52C400.073 270.52 397.033 271.44 394.313 273.28C391.673 275.04 389.113 277.96 386.633 282.04L374.033 271.12C377.393 265.44 381.673 261.16 386.873 258.28C392.073 255.4 398.033 253.96 404.753 253.96C410.593 253.96 415.633 255.04 419.873 257.2C424.193 259.36 427.513 262.44 429.833 266.44C432.233 270.44 433.433 275.12 433.433 280.48C433.433 283.84 432.993 286.96 432.113 289.84C431.233 292.64 429.793 295.44 427.793 298.24C425.873 300.96 423.273 303.96 419.993 307.24L397.433 329.68L374.153 329.44ZM374.153 340V329.44L390.113 323.92H435.113V340H374.153ZM441.528 310.6L469.368 255.28H489.888L461.448 310.6H441.528ZM441.528 321.16V310.6L447.768 305.2H509.448V321.16H441.528ZM481.488 340V287.56H499.968V340H481.488ZM574.053 340L550.413 302.2H548.133L515.493 255.28H537.933L561.213 290.8H563.493L596.133 340H574.053ZM513.933 340L545.253 294.64L559.773 302.8L535.413 340H513.933ZM564.213 300.04L549.693 291.88L573.213 255.28H594.693L564.213 300.04ZM628.394 341.32C622.554 341.32 617.074 340.32 611.954 338.32C606.914 336.24 602.714 333.28 599.354 329.44L611.594 317.32C613.114 319.56 615.314 321.4 618.194 322.84C621.154 324.2 624.354 324.88 627.794 324.88C630.834 324.88 633.474 324.36 635.714 323.32C637.954 322.2 639.714 320.64 640.994 318.64C642.274 316.56 642.914 314.16 642.914 311.44C642.914 308.64 642.274 306.24 640.994 304.24C639.714 302.24 637.914 300.72 635.594 299.68C633.354 298.56 630.794 298 627.914 298C625.034 298 622.394 298.4 619.994 299.2C617.594 299.92 615.394 301.04 613.394 302.56L614.954 290.56C616.794 289.12 618.554 287.96 620.234 287.08C621.914 286.12 623.754 285.4 625.754 284.92C627.754 284.44 630.114 284.2 632.834 284.2C639.074 284.2 644.314 285.48 648.554 288.04C652.874 290.6 656.114 294 658.274 298.24C660.514 302.48 661.634 307.16 661.634 312.28C661.634 317.88 660.234 322.88 657.434 327.28C654.714 331.68 650.874 335.12 645.914 337.6C640.954 340.08 635.114 341.32 628.394 341.32ZM613.394 302.56L605.234 295L609.314 255.28H626.354L621.914 294.64L613.394 302.56ZM611.834 271.24L609.314 255.28H656.954V271.24H611.834ZM678.143 340L704.783 302.92L711.743 302.44C710.703 304.28 709.543 305.92 708.263 307.36C707.063 308.72 705.503 309.8 703.583 310.6C701.743 311.32 699.263 311.68 696.143 311.68C691.023 311.68 686.303 310.48 681.983 308.08C677.743 305.6 674.343 302.28 671.783 298.12C669.303 293.88 668.063 289.08 668.063 283.72C668.063 278.12 669.463 273.08 672.263 268.6C675.063 264.12 678.823 260.56 683.543 257.92C688.263 255.28 693.583 253.96 699.503 253.96C705.423 253.96 710.743 255.28 715.463 257.92C720.183 260.48 723.903 264 726.623 268.48C729.423 272.88 730.823 277.88 730.823 283.48C730.823 290.68 728.343 297.92 723.383 305.2L699.503 340H678.143ZM699.503 297.64C701.983 297.64 704.223 297.04 706.223 295.84C708.223 294.64 709.783 293.04 710.903 291.04C712.023 288.96 712.583 286.64 712.583 284.08C712.583 281.44 712.023 279.08 710.903 277C709.783 274.92 708.223 273.32 706.223 272.2C704.223 271 701.983 270.4 699.503 270.4C696.943 270.4 694.663 271 692.663 272.2C690.743 273.32 689.183 274.92 687.983 277C686.863 279.08 686.303 281.44 686.303 284.08C686.303 286.64 686.863 288.96 687.983 291.04C689.183 293.04 690.783 294.64 692.783 295.84C694.783 297.04 697.023 297.64 699.503 297.64ZM752.22 340V255.28H770.94V340H752.22ZM735.9 271.24V255.28H769.74V271.24H735.9Z" fill="#8B8B8B"/>
</svg>
